<?xml version="1.0" encoding="utf-8"?>
<!-- Generator: Adobe Illustrator 25.4.1, SVG Export Plug-In . SVG Version: 6.00 Build 0)  -->
<svg version="1.1" id="Layer_1" xmlns="http://www.w3.org/2000/svg" xmlns:xlink="http://www.w3.org/1999/xlink" x="0px" y="0px"
	 viewBox="0 0 747.5 347.89" style="enable-background:new 0 0 747.5 347.89;" xml:space="preserve">
<style type="text/css">
	.st0{clip-path:url(#SVGID_00000129168598548615171140000005267603483295620007_);}
	.st1{opacity:0.4;clip-path:url(#SVGID_00000129168598548615171140000005267603483295620007_);}
	.st2{clip-path:url(#SVGID_00000051379890149151520620000016774713853833014163_);}
	.st3{clip-path:url(#SVGID_00000072246891891810807890000003522152517068744091_);}
	.st4{clip-path:url(#SVGID_00000050625816225529816740000006277997748794108845_);}
	.st5{clip-path:url(#SVGID_00000025437255759935897420000012686362049699194301_);}
	.st6{opacity:0.8;clip-path:url(#SVGID_00000129168598548615171140000005267603483295620007_);}
	.st7{clip-path:url(#SVGID_00000003788522543626113900000011408127535626675356_);}
	.st8{clip-path:url(#SVGID_00000173857238418461207610000006192117137498108597_);}
	.st9{clip-path:url(#SVGID_00000129168598548615171140000005267603483295620007_);fill:#877F7D;}
	.st10{clip-path:url(#SVGID_00000129168598548615171140000005267603483295620007_);fill:#544F4A;}
	.st11{opacity:0.6;clip-path:url(#SVGID_00000129168598548615171140000005267603483295620007_);}
	.st12{clip-path:url(#SVGID_00000145765864534290442680000005833064324392684195_);}
	.st13{clip-path:url(#SVGID_00000018940477338472450800000009045943745630934712_);}
	.st14{opacity:0.4;clip-path:url(#SVGID_00000146497087907492573530000011523623856763400347_);}
	.st15{clip-path:url(#SVGID_00000036216130712841330860000015712288756954866832_);}
	.st16{clip-path:url(#SVGID_00000098195771989568981440000010682509420675684540_);}
	.st17{clip-path:url(#SVGID_00000154387457529658704270000004855440854926669757_);}
	.st18{clip-path:url(#SVGID_00000053535203924500129020000003729803133958085770_);}
	.st19{opacity:0.8;clip-path:url(#SVGID_00000146497087907492573530000011523623856763400347_);}
	.st20{clip-path:url(#SVGID_00000134971468872117410180000008393598903700623001_);}
	.st21{clip-path:url(#SVGID_00000093148175705621555960000016474500523265783731_);}
	.st22{fill:#877F7D;}
	.st23{clip-path:url(#SVGID_00000154410317788378341980000017778735504959360394_);}
	.st24{clip-path:url(#SVGID_00000154410317788378341980000017778735504959360394_);fill:#544F4A;}
	.st25{opacity:0.6;clip-path:url(#SVGID_00000154410317788378341980000017778735504959360394_);}
	.st26{clip-path:url(#SVGID_00000104708350639081061600000015376715350868016569_);}
	.st27{clip-path:url(#SVGID_00000120542747455754239570000016824868321189925049_);}
	.st28{fill:none;}
	.st29{font-family:'VarelaRound-Regular';}
	.st30{font-size:40px;}
	.st31{letter-spacing:2;}
</style>
<g>
	<g>
		<g>
			<defs>
				<rect id="SVGID_1_" x="362.98" y="133.17" width="384.52" height="154.28"/>
			</defs>
			<clipPath id="SVGID_00000002364515177027168910000005812901905521416610_">
				<use xlink:href="#SVGID_1_"  style="overflow:visible;"/>
			</clipPath>
			<path style="clip-path:url(#SVGID_00000002364515177027168910000005812901905521416610_);" d="M83.39,225.64
				c3.81-3.91,5.71-9.07,5.71-15.49V175.1c0-6.52-1.91-11.73-5.71-15.64c-3.81-3.91-8.87-5.87-15.19-5.87
				c-6.22,0-11.23,1.96-15.04,5.87c-3.81,3.91-5.72,9.12-5.72,15.64v35.04c0,6.42,1.9,11.58,5.72,15.49
				c3.81,3.91,8.82,5.87,15.04,5.87C74.51,231.5,79.57,229.55,83.39,225.64 M48.19,241.95c-5.82-3.06-10.3-7.39-13.46-13.01
				c-3.16-5.62-4.74-12.08-4.74-19.4v-34.29c0-7.22,1.6-13.61,4.82-19.17c3.2-5.56,7.69-9.88,13.46-12.94
				c5.76-3.06,12.41-4.59,19.93-4.59c7.62,0,14.31,1.53,20.08,4.59c5.77,3.06,10.25,7.37,13.46,12.94
				c3.2,5.56,4.81,11.95,4.81,19.17v34.29c0,7.32-1.61,13.79-4.81,19.4c-3.21,5.62-7.7,9.95-13.46,13.01
				c-5.76,3.06-12.46,4.59-20.08,4.59C60.68,246.54,54.01,245.01,48.19,241.95"/>
			<path style="clip-path:url(#SVGID_00000002364515177027168910000005812901905521416610_);" d="M187.69,140.28
				c0.35-0.35,0.77-0.52,1.28-0.52h13.84c0.5,0,0.93,0.18,1.28,0.52c0.35,0.35,0.53,0.78,0.53,1.28v101.67
				c0,0.5-0.18,0.93-0.53,1.28c-0.35,0.35-0.78,0.53-1.28,0.53h-13.38c-1,0-1.71-0.4-2.11-1.21l-43.32-70.99
				c-0.2-0.3-0.4-0.42-0.6-0.38c-0.2,0.05-0.3,0.28-0.3,0.68l0.3,70.09c0,0.5-0.18,0.93-0.52,1.28c-0.35,0.35-0.78,0.53-1.28,0.53
				h-13.84c-0.5,0-0.93-0.18-1.28-0.53c-0.35-0.35-0.53-0.77-0.53-1.28V141.56c0-0.5,0.18-0.93,0.53-1.28
				c0.35-0.35,0.77-0.52,1.28-0.52h13.38c1,0,1.7,0.4,2.11,1.2l43.16,70.99c0.2,0.3,0.4,0.42,0.6,0.37c0.2-0.05,0.3-0.27,0.3-0.67
				l-0.15-70.09C187.16,141.06,187.33,140.64,187.69,140.28"/>
			<path style="clip-path:url(#SVGID_00000002364515177027168910000005812901905521416610_);" d="M294.75,154.76
				c-0.35,0.35,0.45,0.04-0.05,0.04h-51.29c-0.5,0-0.75,0.25-0.75,0.75v28.12c0,0.5,0.25,0.75,0.75,0.75h34.44
				c0.5,0,0.93,0.18,1.28,0.52c0.35,0.35,0.52,0.78,0.52,1.28v11.43c0,0.5-0.18,0.93-0.52,1.28c-0.35,0.35-0.78,0.52-1.28,0.52
				h-34.44c-0.5,0-0.75,0.25-0.75,0.75v29.03c0,0.5,0.25,0.75,0.75,0.75h51.29c0.5,0,0.92,0.18,1.28,0.52
				c0.35,0.35-1.23,1.64-1.23,2.14l-2.69,10.75c0,0.5-0.32-0.35-0.67,0c-0.35,0.35,0.5,1.34,0,1.34l-64.38,0.28
				c-0.5,0-0.93-0.17-1.28-0.53c-0.35-0.35-0.52-0.77-0.52-1.28V141.56c0-0.5,0.17-0.93,0.52-1.28c0.35-0.35,0.77-0.52,1.28-0.52
				l63.7,0.22c0.5,0-1.69,2.34-1.34,2.68c0.35,0.35,1.34,0.85,1.34,1.35l2.69,9.4C293.41,153.92,295.1,154.41,294.75,154.76"/>
			<g style="opacity:0.4;clip-path:url(#SVGID_00000002364515177027168910000005812901905521416610_);">
				<g>
					<defs>
						<rect id="SVGID_00000101092233182545856370000009959002295921793962_" x="19.01" y="10.26" width="307.83" height="332.93"/>
					</defs>
					<clipPath id="SVGID_00000174597293879693737020000017840375336487329152_">
						<use xlink:href="#SVGID_00000101092233182545856370000009959002295921793962_"  style="overflow:visible;"/>
					</clipPath>
					<g style="clip-path:url(#SVGID_00000174597293879693737020000017840375336487329152_);">
						<defs>
							<rect id="SVGID_00000087409385827984775410000015623243978921846433_" x="19.01" y="10.26" width="307.83" height="332.93"/>
						</defs>
						<clipPath id="SVGID_00000168834146135535412430000004361341019343609485_">
							<use xlink:href="#SVGID_00000087409385827984775410000015623243978921846433_"  style="overflow:visible;"/>
						</clipPath>
						<path style="clip-path:url(#SVGID_00000168834146135535412430000004361341019343609485_);" d="M79.42,48.12
							c-0.35,0.16-0.7,0.32-1.04,0.49l0-0.02c0,0,0.01,0,0.02-0.01C78.73,48.43,79.07,48.28,79.42,48.12"/>
						<path style="clip-path:url(#SVGID_00000168834146135535412430000004361341019343609485_);" d="M321.59,188.48
							c-0.01-0.03-0.01-0.05-0.01-0.08C321.58,188.43,321.58,188.46,321.59,188.48c0.09,0.59,0.19,1.19,0.29,1.79
							C321.79,189.68,321.69,189.08,321.59,188.48 M321.59,188.48c-0.01-0.03-0.01-0.05-0.01-0.08
							C321.58,188.43,321.58,188.46,321.59,188.48c0.09,0.59,0.19,1.19,0.29,1.79C321.79,189.68,321.69,189.08,321.59,188.48"/>
						<path style="clip-path:url(#SVGID_00000168834146135535412430000004361341019343609485_);" d="M326.85,204.23
							c-0.1-13.14-1.73-26.23-4.78-39.01l0,0.01c0-0.02-0.01-0.03-0.01-0.04c-0.05-0.55-0.11-1.09-0.18-1.65
							c-0.11-1-0.23-1.98-0.35-2.98c-0.14-0.97-0.26-1.97-0.41-2.96c-0.09-0.65-0.19-1.32-0.29-1.97c-0.77-4.9-1.7-9.74-2.8-14.48
							c-7.96-34.2-24.72-64.14-46.88-86.93c-1.02-1.04-13.88-12.75-13.9-12.77c-0.95-0.77-7.24-5.15-9.24-6.58
							c-11.57-6.6-19.65-12.32-32.88-16.4c-18.24-5.65-40.65-8.21-58.78-8.21c-4.58,0-9.14,0.17-13.67,0.51
							c-2.18,0.16-4.35,0.5-6.49,1.04c-5.91,1.49-11.66,3.37-17.21,5.65h-0.01c-1.7,0.7-3.38,1.43-5.04,2.2
							c-1.75,0.81-3.47,1.6-5.2,2.4c-0.19,0.09-0.37,0.17-0.55,0.26c-0.05,0.02-0.12,0.05-0.16,0.07
							c-12.06,5.54-23.14,12.94-33.05,21.8c0,0,0,0.01-0.01,0.01c-4.55,4.08-8.87,8.47-12.9,13.16c-2.39,2.78-4.7,5.65-6.89,8.62
							c-0.01,0-0.01,0.01-0.01,0.01c-3.83,5.15-7.36,10.6-10.57,16.3l-0.01,0l-0.01,0.02h0.01l-0.01,0h-0.01
							c-0.64,1.15-3.67,6.74-5.03,9.68c-0.1,0.26-19.03,48.29-20.26,74.04c-0.48,9.91-0.37,20.66,1.21,30.93
							c11.15,72.14,68.71,129.11,128.36,144.46c0,0,7.32,1.53,8.99,1.6c15.61,0.62,27.66-0.46,45.38-3.39
							c5.5-0.91,23.83-7.61,23.84-7.61c1.09-0.46,2.28-0.9,3.35-1.39c0.32-0.14,0.63-0.29,0.93-0.44l0.36-0.18
							c0.47-0.24,0.94-0.46,1.42-0.67c0.01,0,0.02-0.01,0.03-0.01c0.04-0.02,0.08-0.04,0.12-0.06c-1.42,0.6-2.84,1.19-4.27,1.74
							c26.79-15.87,48.73-40.23,61.34-71.27c1.82-4.49,3.41-9.04,4.77-13.61c-1.42,2.04-6.93,13.79-8.63,17.17l-10.8,16.53
							c-4.34,8.73-59.59,52.85-95.94,59.49h0c-5,0.92-12.54,0.9-7.55-0.02c-70.18-2.28-131.14-62.21-143.75-143.81
							c-5.95-38.63,5.75-76.42,21.12-107.05h0c0.1-0.2,0.32-0.63,0.32-0.64c1.27-2.5,9.37-17.64,9.37-17.64
							c3.04-4.41,12.15-14.22,12.16-14.23c0.01,0,0.01,0,0.01-0.01h0.02l-0.01-0.01c0.56-0.63,6.68-7.03,6.96-7.32l0-0.01
							c0,0,0.01-0.01,0.02-0.02c0.24-0.23,4.24-4,5.08-4.74c0.58-0.52,1.16-1.02,1.75-1.52c1.17-1.01,2.36-1.99,3.57-2.95
							c1.21-0.97,2.42-1.9,3.66-2.82h0.01c6.25-4.65,12.9-8.74,19.89-12.17c0,0,0.01,0,0.02,0c10.16-4.37,20.01-8.63,31.4-10.18
							l4.61-0.47h0.01c1.33-0.06,2.66-0.1,4.01-0.13c1.31-0.03,2.64-0.04,3.96-0.04c1.12,0,2.22,0.01,3.34,0.04
							c0.81,0,1.59,0.02,2.4,0.06c0.52,0.01,1.04,0.02,1.57,0.04c2.02,0.09,4.07,0.2,6.11,0.36c1.12,0.08,2.24,0.17,3.35,0.29
							c1.13,0.09,2.25,0.22,3.38,0.34c2.25,0.24,4.5,0.54,6.74,0.88c1.13,0.17,2.24,0.35,3.38,0.54c0.83,0.15,1.68,0.29,2.52,0.45
							c0.67,0.12,1.34,0.25,2.01,0.38c0.93,0.18,1.87,0.37,2.8,0.56c0.93,0.2,1.86,0.41,2.78,0.62c1.38,0.32,2.77,0.65,4.14,1
							c1.71,0.43,3.41,0.89,5.11,1.38c1.41,0.39,2.82,0.81,4.22,1.24c0.45,0.14,0.89,0.28,1.34,0.42c0.3,0.1,0.61,0.19,0.91,0.29
							c-0.02,0-0.03-0.01-0.04-0.02c0.01,0.01,0.02,0.02,0.04,0.02c0.74,0.23,1.48,0.48,2.22,0.74c0.45,0.15,0.89,0.29,1.33,0.45
							c0.66,0.22,1.32,0.45,1.99,0.7c1.09,0.39,2.2,0.8,3.28,1.21c1,0.37,1.98,0.75,2.95,1.14c0.2,0.09,0.4,0.16,0.6,0.25
							c0.98,0.39,1.95,0.8,2.91,1.2c28.9,15.95,53.49,41.92,69.54,74.28c-4-5.68-8.33-11.15-13-16.38
							c4.76,7.35,9.05,15.14,12.79,23.33c0.68,1.5,1.33,3.01,2,4.52v0.01c2.39,5.64,4.53,11.46,6.38,17.43
							c0,0.02,0.02,0.04,0.02,0.06c0.3,0.92,0.58,1.85,0.84,2.77c1.51,5.11,2.8,10.33,3.88,15.66c0.6,2.95,1.13,5.93,1.6,8.93
							c11.43,74.16-22.32,142.83-78.52,170.5c0.42-0.19,0.84-0.37,1.26-0.56c0.58-0.24,1.16-0.52,1.74-0.78
							c21.67-9.99,40.14-26.01,54.18-46.07c-14.18,22.04-33.39,39.76-56.18,50.87c-0.85,0.42-1.7,0.82-2.56,1.21
							c1.53-0.69,3.04-1.38,4.57-2.08c0.45-0.21,0.89-0.41,1.33-0.6c48.53-22.39,81.41-74.31,85.13-134.78v-0.01
							c0.23-3.74,0.35-7.48,0.35-11.27c0-0.38-0.01-0.77-0.01-1.15c-0.01-1.82-0.04-3.67-0.1-5.51c0.09,0.43,0.19,0.87,0.28,1.29
							C325.05,187.9,326.24,196.05,326.85,204.23 M23.9,191.75c8,55.83,34.37,82.24,36.27,84.44
							c-34.47-36.95-38.88-83.74-38.88-83.74c-5.62-57.65,20.85-93.37,22.18-95.56C42.35,98.91,15.8,135.17,23.9,191.75"/>
					</g>
				</g>
			</g>
			<g style="opacity:0.4;clip-path:url(#SVGID_00000002364515177027168910000005812901905521416610_);">
				<g>
					<defs>
						<rect id="SVGID_00000157283053012549639290000000476316440601771666_" x="81.17" y="13.98" width="240.72" height="176.3"/>
					</defs>
					<clipPath id="SVGID_00000159445257390161042400000008314310058117085833_">
						<use xlink:href="#SVGID_00000157283053012549639290000000476316440601771666_"  style="overflow:visible;"/>
					</clipPath>
					<g style="clip-path:url(#SVGID_00000159445257390161042400000008314310058117085833_);">
						<defs>
							<rect id="SVGID_00000039125259114147152890000018307060156090127788_" x="81.17" y="13.98" width="240.72" height="176.29"/>
						</defs>
						<clipPath id="SVGID_00000147198623961570462500000003816960142334467979_">
							<use xlink:href="#SVGID_00000039125259114147152890000018307060156090127788_"  style="overflow:visible;"/>
						</clipPath>
						<path style="clip-path:url(#SVGID_00000147198623961570462500000003816960142334467979_);" d="M122.51,16.76L122.51,16.76
							c-3.94,1.26-7.79,2.7-11.56,4.32c-10.78,5.31-20.76,12.11-29.78,20.13c2.18-1,4.39-1.94,6.63-2.85v0
							c6.76-4.89,13.96-9.13,21.55-12.64c0.37-0.18,0.74-0.33,1.09-0.49c1.61-0.74,3.21-1.5,4.82-2.24
							c8.57-3.93,17.64-6.95,27.12-8.89C135.68,14.62,129.04,15.51,122.51,16.76 M142.4,14.1c0,0-0.01,0-0.02,0
							c0.6-0.04,1.21-0.08,1.81-0.12C143.59,14.02,142.99,14.06,142.4,14.1 M313.72,140.91c0.79,1.81,1.55,3.62,2.29,5.45
							C315.27,144.53,314.51,142.72,313.72,140.91 M321.59,188.48c-0.01-0.03-0.01-0.05-0.01-0.08
							C321.58,188.43,321.58,188.46,321.59,188.48c0.09,0.59,0.19,1.19,0.29,1.79C321.79,189.68,321.69,189.08,321.59,188.48"/>
					</g>
				</g>
			</g>
			<g style="opacity:0.8;clip-path:url(#SVGID_00000002364515177027168910000005812901905521416610_);">
				<g>
					<defs>
						<rect id="SVGID_00000042731057749008702060000003424502792879197087_" x="-2.2" y="41.8" width="306.32" height="301.28"/>
					</defs>
					<clipPath id="SVGID_00000047754124782314685420000008204598092559730097_">
						<use xlink:href="#SVGID_00000042731057749008702060000003424502792879197087_"  style="overflow:visible;"/>
					</clipPath>
					<g style="clip-path:url(#SVGID_00000047754124782314685420000008204598092559730097_);">
						<defs>
							<rect id="SVGID_00000173855214701196742040000014317252241054601402_" x="-2.2" y="41.8" width="306.32" height="301.28"/>
						</defs>
						<clipPath id="SVGID_00000006701033233294608480000006822602132546875526_">
							<use xlink:href="#SVGID_00000173855214701196742040000014317252241054601402_"  style="overflow:visible;"/>
						</clipPath>
						<path style="clip-path:url(#SVGID_00000006701033233294608480000006822602132546875526_);" d="M204.44,331.08L204.44,331.08
							c0.49-0.17,0.97-0.34,1.45-0.52C205.41,330.73,204.93,330.9,204.44,331.08"/>
						<path style="clip-path:url(#SVGID_00000006701033233294608480000006822602132546875526_);" d="M211.87,55.09
							c-1.16-0.51-2.33-1-3.49-1.48c-13.93-5.68-28.19-9.24-42.41-10.83h-0.02c-5.86-0.66-11.72-0.99-17.54-0.99
							c-31.17,0-61.38,9.27-86.44,26.17c-0.37,0.25-0.73,0.49-1.09,0.75c-0.01,0-13.06,10.04-15.82,12.56
							C30.13,94.89,17.93,111.75,9.7,131.33c-5.03,11.93-8.28,24.19-9.87,36.48c-0.26,2.05-0.53,4.11-0.79,6.16
							c-0.03,0.16-0.05,0.32-0.07,0.49c-2.69,20.69-0.68,41.49,5.46,61.07v0.02c4.55,14.49,11.35,28.32,20.18,40.95
							c11.3,16.18,25.92,30.4,43.38,41.55c7.95,5.08,16.49,9.52,25.57,13.23c19.65,8.01,39.98,11.81,59.94,11.81
							c17.35,0,34.4-2.88,50.43-8.33h0c2.82-0.96,5.58-1.99,8.32-3.11c5.65-2.3,11.15-4.92,16.47-7.86c0.6-0.33,1.22-0.68,1.81-1.02
							c26.96-15.4,49.02-39.06,61.7-69.2c2.51-5.98,4.58-12.03,6.22-18.11c1.64-6.1,2.85-12.23,3.65-18.36
							c0.02-0.08,0.02-0.16,0.04-0.23v-0.01c0.27-2.15,0.55-4.3,0.82-6.42C311.19,147,275.33,82.72,211.87,55.09 M-0.57,171.15
							c0-0.01,0-0.02,0-0.02c1.73-11.17,4.82-22.28,9.38-33.13c2.98-7.09,6.48-13.82,10.44-20.16c-4.15,7.8-7.56,15.85-10.24,24.07
							c-0.65,1.95-2.03,6.22-2.07,6.35c-5.67,17.38-8.07,35.49-7.4,53.53C-1.58,191.67-1.64,181.4-0.57,171.15 M2.89,201.22
							c-1.08-9.73-1.14-19.59-0.12-29.46v-0.02c1.69-10.95,4.71-21.84,9.2-32.48v-0.01c2.95-7.01,6.41-13.67,10.34-19.93
							c-4.09,7.68-7.45,15.62-10.08,23.7c-0.71,2.12-1.41,4.24-2.08,6.35C4.67,166.23,2.31,183.75,2.89,201.22 M204.44,331.08
							L204.44,331.08c0.49-0.18,0.98-0.35,1.46-0.53C205.42,330.73,204.93,330.91,204.44,331.08 M202.3,329.76
							c1.81-0.24,3.61-0.52,5.39-0.82C205.9,329.24,204.11,329.53,202.3,329.76 M180.99,330.83c-5.23,0.92-16.13,1.97-16.26,1.98
							h-0.01c-3.45,0.24-15.67,0.29-18.3,0.16c-16.96-0.87-34.11-4.56-50.74-11.35c-38.14-15.56-66.5-44.47-81.51-78.62
							c-0.01-0.02-0.02-0.05-0.03-0.08c-11.07-31.24-12.41-65.15-2.86-96.79c3.99-11.35,9.43-22.36,16.38-32.79
							c1.99-3,4.07-5.89,6.23-8.69c2.31-2.99,4.73-5.88,7.23-8.65c1.62-1.8,3.28-3.55,4.97-5.25c0.01,0,0.01,0,0.02-0.01
							c0,0,0,0,0-0.01c1.3-1.19,2.62-2.36,3.96-3.51h0c26.67-22.79,61.46-35.51,97.58-35.51c19.5,0,39.39,3.71,58.61,11.55
							c63.01,25.7,99.32,87.88,92.9,149.87v0.03c-1.7,10.94-4.72,21.82-9.19,32.45C270.53,291.81,228.55,322.44,180.99,330.83
							 M302.5,213.63L302.5,213.63c-1.71,11.21-4.82,22.37-9.41,33.28c-5.21,12.39-12,23.67-20.07,33.75
							c6.35-8.65,11.77-18.14,16.09-28.39c4.9-11.67,8.06-23.65,9.64-35.67c0-0.06,0.01-0.11,0.02-0.17c0-0.02,0-0.03,0-0.04
							c0.28-2.15,0.55-4.3,0.84-6.45c3.05-23.53-0.12-47.2-8.61-68.98C300.95,163.69,305.11,188.67,302.5,213.63"/>
					</g>
				</g>
			</g>
			<path style="clip-path:url(#SVGID_00000002364515177027168910000005812901905521416610_);fill:#877F7D;" d="M274.41,321.79
				L274.41,321.79L274.41,321.79L274.41,321.79z M274.41,321.79L274.41,321.79L274.41,321.79L274.41,321.79z"/>
			<path style="clip-path:url(#SVGID_00000002364515177027168910000005812901905521416610_);" d="M318.84,139.63v-0.02
				c-5.31-13.31-12.28-26.06-20.8-37.88l-0.01-0.01c-4-5.56-8.35-10.91-13.03-16.04c0,0,0-0.01,0-0.01
				c-13.79-15.09-30.43-28.12-49.66-38.19c-26.74-14.01-55.33-20.65-83.3-20.65c-20.47,0-40.61,3.55-59.46,10.38
				c-1.56,0.57-11.32,4.57-11.33,4.57c-2.09,0.93-6.21,2.92-6.22,2.92C44.77,59.71,19.05,83.77,2.5,115.56
				c-6.85,13.14-11.71,26.85-14.71,40.76c-0.04,0.14-0.06,0.28-0.1,0.42c-0.41,1.95-0.83,3.9-1.25,5.85
				c-0.02,0.1-0.05,0.23-0.07,0.32v0.01c-7.87,36.52-2.83,74.52,13.14,108.11c10.26,21.58,25.04,41.34,43.81,57.71
				c10.48,9.15,22.22,17.23,35.11,23.99c9.96,5.22,20.18,9.42,30.54,12.63h0.01c17.43,5.41,35.21,8.02,52.77,8.02
				c37.79,0,74.46-12.12,103.95-34.59c-0.48,0.34-0.48,0.33,0,0c13.45-10.24,25.42-22.65,35.31-37.03
				c3.72-5.41,7.15-11.1,10.26-17.07c2.27-4.36,4.33-8.79,6.17-13.26c3.71-9.01,6.55-18.22,8.56-27.53
				c0.09-0.45,0.19-0.91,0.28-1.36c0.01-0.01,0.01-0.01,0.01-0.02c0.37-1.74,0.75-3.47,1.12-5.22
				C334.49,204.51,331.14,170.53,318.84,139.63 M-12.91,159.75c3.02-12.82,7.67-25.44,14.01-37.6c7.06-13.57,15.8-25.73,25.84-36.37
				c-8.21,9.37-15.42,19.83-21.41,31.33l0,0.01c-6.71,12.91-11.49,26.35-14.43,39.99c-0.09,0.41-0.17,0.82-0.26,1.23
				c-0.38,1.79-0.78,3.58-1.15,5.36v0c-5.79,26.86-4.46,54.52,3.16,80.57C-16.15,217.15-18.37,188.06-12.91,159.75 M274.43,321.79
				L274.43,321.79l-0.01,0.01c-0.01,0.01-0.02,0.02-0.02,0.02c-13.59,11.61-29.03,20.55-45.55,26.69h-0.01
				c-17.66,6.58-36.56,9.94-55.72,9.94c-31.82,0-64.93-9.33-94.33-27.37c-4.39-2.69-31.4-20.71-50-46.5
				c-3.4-4.72-7.09-9.22-10.07-14.21c-6.19-10.36-11.11-21.37-14.65-32.8c9.94,39.66,34.58,76.43,71.86,101.35
				c4.8,3.21,9.68,6.14,14.65,8.81c-3.09-1.39-6.15-2.89-9.19-4.48c-69.3-36.32-104.56-111.91-91-182.62v-0.01
				c2.98-12.57,7.53-24.95,13.74-36.87c6.21-11.93,13.74-22.76,22.34-32.39c8.59-9.64,18.26-18.09,28.72-25.29
				c2.53-1.73,13.91-8.59,16.31-9.85v-0.01c24.02-12.66,51.16-19.39,78.92-19.44c-32.19,1.49-63.27,12.31-88.83,31.68
				c-0.41,0.32-0.82,0.63-1.23,0.94c0.37-0.25,0.73-0.5,1.09-0.75c24.99-17.03,55.11-25.78,86.19-26.37
				c18.09-0.35,31.77,0.91,45.88,4.08c12.2,2.74,23.9,7.41,34.69,13.73c7.4,4.34,14.64,9.09,21.64,13.77
				c28.17,18.84,48.64,45.69,61.15,74.3c2.11,4.82,5.56,14.18,5.62,14.71c3.32,10.11,5.65,20.48,6.95,30.94v0
				c2.44,19.57,1.26,39.47-3.77,58.64v0.01c-2.67,8.17-6.04,16.22-10.14,24.07C300.51,294.08,288.49,309.26,274.43,321.79
				 M319.52,254.04c-0.28,0.88-0.6,1.88-0.93,2.89C318.92,255.92,319.24,254.92,319.52,254.04 M321.13,260.12
				c0.21-0.67,0.41-1.33,0.6-2c0,0,0.01,0,0.01,0C321.54,258.79,321.34,259.45,321.13,260.12 M326.72,240.4
				C326.71,240.4,326.71,240.4,326.72,240.4c-0.12,0.48-0.24,0.96-0.35,1.44c0.2-0.9,0.39-1.79,0.58-2.69
				C326.87,239.57,326.79,239.98,326.72,240.4 M322.99,253.65c-2.72,8.29-6.15,16.46-10.3,24.43c-1.25,2.39-2.55,4.74-3.89,7.04
				l-0.01,0.01c-6.36,10.88-13.84,20.77-22.22,29.62c5.39-6.13,10.36-12.74,14.84-19.79c0.01-0.02,0.02-0.03,0.03-0.04
				c2.41-3.81,4.68-7.75,6.8-11.82c6.73-12.9,11.5-26.33,14.43-39.98c0.48-2.21,0.95-4.4,1.42-6.61c2.5-11.62,3.67-23.39,3.58-35.11
				C329,218.89,327.49,236.56,322.99,253.65"/>
			<path style="clip-path:url(#SVGID_00000002364515177027168910000005812901905521416610_);fill:#544F4A;" d="M140.76,366.66
				c-2.83-0.37-5.66-0.81-8.5-1.32c-2.83-0.52-5.66-1.1-8.49-1.76c-1.88-0.44-3.77-0.91-5.64-1.42c4.62,1.05,9.22,1.9,13.85,2.6
				c0.75,0.18,1.49,0.36,2.24,0.53C136.38,365.79,138.57,366.25,140.76,366.66"/>
			<g style="opacity:0.6;clip-path:url(#SVGID_00000002364515177027168910000005812901905521416610_);">
				<g>
					<defs>
						<rect id="SVGID_00000055667295237795503790000016513676038921307011_" x="-28.13" y="3.5" width="371.92" height="374.67"/>
					</defs>
					<clipPath id="SVGID_00000149372720183424361450000003005260300379983022_">
						<use xlink:href="#SVGID_00000055667295237795503790000016513676038921307011_"  style="overflow:visible;"/>
					</clipPath>
					<g style="clip-path:url(#SVGID_00000149372720183424361450000003005260300379983022_);">
						<defs>
							<rect id="SVGID_00000041987104806234190200000006887474057658385330_" x="-28.13" y="3.5" width="371.92" height="374.67"/>
						</defs>
						<clipPath id="SVGID_00000062153822172019583290000016539481043344366740_">
							<use xlink:href="#SVGID_00000041987104806234190200000006887474057658385330_"  style="overflow:visible;"/>
						</clipPath>
						<path style="clip-path:url(#SVGID_00000062153822172019583290000016539481043344366740_);" d="M41.87,299.26
							c0.01,0.01,0.03,0.03,0.04,0.04c0-0.01-0.01-0.03-0.03-0.04H41.87z"/>
						<path style="clip-path:url(#SVGID_00000062153822172019583290000016539481043344366740_);" d="M343.66,194.79
							c3.06-81.07-49.47-157.77-131.78-182.99C193.54,6.17,175,3.5,156.77,3.5C77.61,3.5,4.42,53.91-19.81,132.3
							c-4.77,15.43-7.34,31.02-7.92,46.46c-0.1,2.18-0.17,4.36-0.25,6.55c-0.01,0.06-0.02,0.14-0.02,0.2
							c-3.05,81.09,49.22,157.74,131.54,182.99c1.73,0.52,3.47,1.03,5.2,1.51h0.01c0.73,0.2,1.45,0.4,2.17,0.58
							c-0.68-0.18-1.36-0.36-2.05-0.54c17.43,5.47,35.21,8.12,52.77,8.12c37.86,0,74.6-12.32,104.16-35.16
							c32.05-22.45,56.66-55.11,69.76-94.8c4.74-14.37,6.46-30.15,7.14-39.16c0,0,0-0.03,0.01-0.08c0.05-0.66,0.09-1.27,0.13-1.86
							c0.19-2.65,0.63-7.08,0.67-7.56C343.53,199.1,343.59,196.9,343.66,194.79 M339.92,197.97c-0.79,14.06-3.29,28.24-7.62,42.27
							c-3.77,12.14-8.71,23.59-14.68,34.29c-0.11,0.29-0.23,0.57-0.35,0.85c0.11-0.27,0.22-0.55,0.34-0.83
							c0.01,0,0.01-0.01,0.01-0.02c3.71-9.17,6.57-18.52,8.57-27.99c0.1-0.46,0.19-0.93,0.29-1.38c0.37-1.78,0.84-3.54,1.13-5.34
							c7.93-49.63-5.46-96.81-5.46-96.81c-8-34-27.95-66.29-50.2-88.94C315.44,88.97,340.96,142.24,339.92,197.97 M320.37,266.03
							c0.17-0.5,0.33-1.01,0.49-1.51c0.04-0.12,0.08-0.24,0.11-0.36c0.01-0.04,0.03-0.07,0.04-0.11c-0.05,0.16-0.1,0.32-0.15,0.47
							C320.7,265.02,320.54,265.53,320.37,266.03 M326.57,244.49c0-0.02,0-0.04,0-0.05c0.2-0.91,0.4-1.81,0.58-2.72
							c-0.07,0.42-0.15,0.83-0.23,1.26c-0.11,0.48-0.23,0.97-0.34,1.46L326.57,244.49z M150.26,9.12
							c5.87-0.79,11.71-1.18,17.52-1.18c29.1,0,57.16,9.71,81.29,26.66c-11.62-6.56-24.14-11.98-37.44-16.06
							c-18.33-5.61-36.88-8.28-55.1-8.28c-5.71,0-11.39,0.26-17.01,0.77C143.03,10.26,146.62,9.62,150.26,9.12 M183.94,12.52
							c-1.53-0.19-3.07-0.36-4.61-0.5c1.5,0.14,3.01,0.29,4.5,0.48C183.87,12.51,183.91,12.51,183.94,12.52 M139.43,11.05
							c0.02-0.01,0.04-0.01,0.06-0.01C139.47,11.04,139.45,11.05,139.43,11.05L139.43,11.05z M-27.82,181.87
							c-0.02,0.43-0.05,0.86-0.06,1.28C-27.88,182.73-27.85,182.31-27.82,181.87c0.82-14.24,3.37-28.59,7.76-42.79
							c4.9-15.9,11.82-30.63,20.4-44.04c-7.01,11.79-12.74,24.58-16.96,38.24v0.01c-2.34,7.57-4.14,15.19-5.44,22.8
							c-1.3,7.62-2.07,15.24-2.35,22.81c-0.01,0.35-0.02,0.7-0.04,1.05c-0.02,0.78-0.06,1.56-0.1,2.33
							c-0.03,0.88-0.07,1.77-0.09,2.67c0,0,0,0.01-0.01,0.02v0.01l0,0.01v0.12v0.02l-0.03,0.52v0.01
							c-1.13,29.95,5.43,59.31,18.37,85.58C-20.81,244.06-28.47,213.35-27.82,181.87 M68.82,350.2c1.59,0.88,3.19,1.74,4.81,2.58
							C72.01,351.94,70.41,351.08,68.82,350.2 M274.88,325.4c-0.08,0.06-0.14,0.13-0.22,0.2c0.8-0.65,1.59-1.32,2.38-1.98
							c-0.82,0.7-1.66,1.4-2.49,2.08c-0.01,0.01-0.01,0.01-0.02,0.02h-0.01h-0.01v0.01c-0.01,0-0.01,0-0.02,0.02l-0.02,0.02
							c-0.01,0-0.01,0-0.01,0c-0.01,0.01-0.01,0.01-0.02,0.02c-13.77,11.17-29.12,20.28-45.51,27.05c-0.03,0.01-0.06,0.02-0.09,0.04
							c-0.03,0.01-0.05,0.02-0.09,0.03c-17.68,6.65-36.58,10.06-55.74,10.06c-31.9,0-64.54-9.43-93.54-29.12
							c-4.3-2.9-8.42-5.99-12.36-9.21c-8.74-5.72-16.75-12.21-23.99-19.37c-1.82-1.78-3.58-3.61-5.29-5.47
							c-0.86-0.93-1.71-1.88-2.53-2.83c-0.53-0.58-1.05-1.19-1.54-1.78c-0.48-0.56-0.97-1.13-1.44-1.71
							c-0.62-0.76-1.24-1.51-1.85-2.28c-0.04-0.05-0.08-0.1-0.11-0.15c-0.75-0.95-1.49-1.9-2.21-2.87
							c-0.68-0.88-1.33-1.77-1.97-2.66c-0.18-0.25-0.36-0.5-0.52-0.74c-0.67-0.91-1.29-1.81-1.91-2.71
							c12.69,22.59,30.72,42.76,53.64,58.3c17.22,11.69,35.71,19.76,54.57,24.39c0.02,0.01,0.03,0.01,0.05,0.01
							c0.73,0.18,1.46,0.36,2.19,0.52c2.18,0.51,4.36,0.96,6.55,1.38c-2.83-0.37-5.66-0.81-8.5-1.33c-2.84-0.51-5.67-1.1-8.49-1.76
							c-1.89-0.43-3.77-0.91-5.65-1.41c-4.46-1.02-8.93-2.21-13.38-3.57c-1.35-0.42-2.69-0.84-4.02-1.28
							c-0.01,0-0.02-0.01-0.03-0.01c-30.15-9.99-56.04-27.09-76.33-48.79c-9.79-10.49-18.29-22.04-25.31-34.4
							c-15.78-27.73-24.2-59.48-23.56-92.04v-0.01c0.82-13.99,3.31-28.06,7.62-42.02C3.01,75.64,56.52,30.5,118.98,17.43h0
							c1.17-0.25,3.55-0.71,3.56-0.72c6.56-1.23,13.22-2.12,19.95-2.62c0.02-0.01,0.04-0.01,0.05-0.01
							c1.99-0.16,3.98-0.28,5.98-0.36c0.1,0,0.16,0,0.18,0c-0.02,0-0.07,0-0.17,0.01c0.39,0,7.95,0.01,13.5,0.5
							c58.01,5.2,97.73,26.19,126.28,69.79c2.99,4.57,18.68,27.51,27.66,55.91c5.79,18.34,7.7,44.26,8.7,55.61
							c1.76,19.97,0.34,40.17-4.69,59.66c-0.41,1.6-0.85,3.19-1.32,4.78c0.46-1.59,0.9-3.18,1.32-4.78
							c-2.68,8.3-6.05,16.5-10.15,24.47C300.73,297.41,288.82,312.72,274.88,325.4 M324.23,238.97c-0.07,0.36-0.13,0.73-0.2,1.09
							c-0.14,0.68-0.27,1.36-0.42,2.04C323.82,241.07,324.03,240.02,324.23,238.97 M323.49,242.58c0,0.03-0.01,0.06-0.02,0.1
							c-0.09,0.37-0.18,0.73-0.27,1.1C323.31,243.38,323.4,242.98,323.49,242.58 M319.37,257.9c-0.06,0.19-0.11,0.37-0.17,0.55
							c-0.15,0.44-0.28,0.89-0.43,1.34c-0.06,0.18-0.11,0.36-0.17,0.53c-0.04,0.11-0.07,0.22-0.1,0.33
							c-0.05,0.13-0.09,0.25-0.13,0.38l0.23-0.71c0.05-0.18,0.11-0.35,0.16-0.53C318.98,259.14,319.18,258.5,319.37,257.9
							 M317.68,263.23c0,0.01,0,0.02,0,0.03v-0.02C317.67,263.24,317.68,263.24,317.68,263.23 M317.65,263.32
							c-0.01,0.02-0.01,0.03-0.02,0.05c-0.42,1.34-0.87,2.68-1.35,4.01c0.46-1.33,0.91-2.67,1.34-4.01
							C317.64,263.36,317.65,263.34,317.65,263.32 M308.97,288.44v0.01c-2.35,3.41-4.81,6.72-7.37,9.94
							c2.41-3.87,4.7-7.87,6.81-12.01c6.74-13.1,11.53-26.77,14.47-40.64c0-0.01,0-0.02,0.01-0.03c0.47-2.23,0.95-4.44,1.41-6.68
							c2.51-11.82,3.68-23.78,3.59-35.72c1.33,17.81-0.18,35.76-4.7,53.14c0.13-0.42,0.27-0.84,0.4-1.27
							c0.14-0.42,0.26-0.85,0.39-1.27l-0.08,0.29c-0.1,0.33-0.2,0.65-0.31,0.98c-0.12,0.42-0.26,0.84-0.39,1.26
							c-0.04,0.18-0.1,0.34-0.14,0.52c0.04-0.18,0.09-0.34,0.13-0.51c-2.72,8.43-6.15,16.73-10.32,24.84
							C311.62,283.72,310.32,286.1,308.97,288.44 M335.77,241.72c-3.67,16.6-12.07,30-20.54,43.29
							c6.95-11.73,12.64-24.44,16.83-38.02c4.66-15.16,7.22-30.46,7.78-45.62c0.03-0.56,0.05-1.13,0.07-1.7
							c0.06-1.58,0.13-3.18,0.18-4.77c0.01-0.09,0.01-0.19,0.01-0.27c1.14-29.79-5.35-59-18.15-85.15
							c-0.09-0.18-0.19-0.36-0.29-0.54c0.1,0.18,0.2,0.36,0.3,0.54c14.03,26.5,21.52,56.32,21.25,86.91
							c-0.04,0.98-0.22,6.44-0.66,9.66l-2.27,16.27C340.06,223.78,335.79,241.63,335.77,241.72"/>
					</g>
				</g>
			</g>
			<path style="clip-path:url(#SVGID_00000002364515177027168910000005812901905521416610_);" d="M385.21,141.3
				c2.06-1.21,4.6-1.82,7.54-1.82c1.89,0,3.58,0.21,5.02,0.62c1.45,0.41,2.95,1.03,4.48,1.83c0.34,0.17,0.73,0.26,1.16,0.26
				c0.77,0,1.39-0.25,1.87-0.75c0.47-0.49,0.71-1.07,0.71-1.72c0-1.08-0.49-1.92-1.4-2.42c-1.89-1.07-3.83-1.91-5.74-2.48
				c-1.93-0.58-4.14-0.87-6.58-0.87c-3.6,0-6.87,0.8-9.74,2.36c-2.88,1.58-5.17,3.87-6.81,6.81s-2.47,6.41-2.47,10.33
				c0,3.92,0.83,7.39,2.47,10.33c1.64,2.94,3.93,5.24,6.81,6.81c2.86,1.57,6.14,2.36,9.74,2.36c2.44,0,4.65-0.29,6.58-0.87
				c1.91-0.57,3.85-1.41,5.74-2.48c0.92-0.5,1.41-1.33,1.41-2.42c0-0.69-0.24-1.28-0.72-1.75c-0.48-0.48-1.1-0.72-1.86-0.72
				c-0.42,0-0.81,0.09-1.17,0.26c-1.52,0.8-3.03,1.41-4.47,1.82c-1.44,0.41-3.12,0.62-5.02,0.62c-2.95,0-5.48-0.61-7.54-1.82
				c-2.05-1.21-3.61-2.87-4.65-4.96c-1.04-2.1-1.57-4.52-1.57-7.2c0-2.68,0.53-5.1,1.57-7.2
				C381.59,144.16,383.16,142.5,385.21,141.3"/>
			<path style="clip-path:url(#SVGID_00000002364515177027168910000005812901905521416610_);" d="M419.09,171.87
				c0.57-0.54,0.86-1.23,0.86-2.03v-15.99c0.9-1.33,2.02-2.4,3.33-3.16c1.34-0.79,2.83-1.19,4.43-1.19h0.27
				c0.82,0,1.51-0.25,2.06-0.76c0.56-0.51,0.84-1.18,0.84-1.98c0-0.79-0.27-1.47-0.79-2.02c-0.53-0.55-1.2-0.83-2-0.83h-0.26
				c-2.87,0-5.52,1.39-7.87,4.14v-0.98c0-0.79-0.28-1.49-0.85-2.05c-0.57-0.56-1.25-0.85-2.05-0.85c-0.8,0-1.48,0.28-2.02,0.85
				c-0.54,0.56-0.82,1.25-0.82,2.04v22.76c0,0.8,0.28,1.48,0.83,2.02c0.54,0.54,1.23,0.82,2.02,0.82
				C417.84,172.68,418.52,172.41,419.09,171.87"/>
			<path style="clip-path:url(#SVGID_00000002364515177027168910000005812901905521416610_);" d="M441.09,155.75
				c0.15-1.43,0.56-2.66,1.21-3.64c0.72-1.09,1.64-1.9,2.73-2.42c2.2-1.03,4.52-1.03,6.72,0c1.09,0.51,2.02,1.33,2.76,2.42
				c0.67,0.98,1.09,2.2,1.24,3.64H441.09z M449.46,172.95c2.16,0,3.95-0.2,5.32-0.6c1.37-0.4,2.78-1,4.19-1.79
				c1.07-0.61,1.61-1.41,1.61-2.36c0-0.73-0.27-1.34-0.79-1.82c-0.51-0.46-1.11-0.7-1.79-0.7c-0.42,0-0.81,0.08-1.16,0.26
				c-1.03,0.51-2.1,0.91-3.17,1.18c-1.07,0.27-2.35,0.41-3.79,0.41c-2.66,0-4.76-0.66-6.22-1.96c-1.35-1.2-2.21-2.88-2.54-4.98
				h17.46c0.87,0,1.57-0.28,2.11-0.83c0.52-0.54,0.79-1.23,0.79-2.02c0-2.46-0.52-4.77-1.53-6.86c-1.02-2.1-2.54-3.81-4.52-5.06
				c-1.98-1.26-4.34-1.9-7.03-1.9c-2.87,0-5.33,0.69-7.31,2.04c-1.98,1.35-3.46,3.15-4.41,5.34c-0.94,2.17-1.41,4.57-1.41,7.13
				c0,4.56,1.27,8.16,3.77,10.69C441.53,171.66,445.03,172.95,449.46,172.95"/>
			<path style="clip-path:url(#SVGID_00000002364515177027168910000005812901905521416610_);" d="M475.25,166.74
				c-0.77-0.69-1.15-1.59-1.15-2.74c0-2.48,2.54-3.73,7.55-3.73h5.33v3.83c-0.93,1.03-2.08,1.91-3.42,2.61
				c-1.37,0.72-2.82,1.09-4.29,1.09C477.38,167.79,476.03,167.44,475.25,166.74 M486.99,169.53v0.31c0,0.8,0.28,1.48,0.82,2.02
				c0.54,0.55,1.23,0.83,2.02,0.83c0.79,0,1.48-0.27,2.04-0.82c0.57-0.54,0.86-1.23,0.86-2.03v-15.01c0-1.9-0.42-3.69-1.25-5.32
				c-0.83-1.64-2.14-3-3.89-4.03c-1.75-1.03-3.91-1.55-6.41-1.55c-3.16,0-6.31,0.65-9.35,1.94c-1.09,0.46-1.66,1.3-1.66,2.44
				c0,0.69,0.24,1.28,0.72,1.76c0.48,0.47,1.05,0.71,1.7,0.71c0.22,0,0.48-0.04,0.83-0.13c1.25-0.42,2.4-0.73,3.42-0.94
				c1.01-0.2,2.18-0.31,3.49-0.31c2.31,0,4.02,0.48,5.08,1.42c1.04,0.93,1.57,2.5,1.57,4.67h-5.96c-4.08,0-7.23,0.82-9.37,2.43
				c-2.18,1.64-3.29,3.87-3.29,6.62c0,1.67,0.42,3.18,1.24,4.46c0.83,1.29,1.95,2.28,3.34,2.95c1.39,0.66,2.91,1,4.52,1
				C481.22,172.95,484.41,171.8,486.99,169.53"/>
			<path style="clip-path:url(#SVGID_00000002364515177027168910000005812901905521416610_);" d="M516.88,171.94
				c0.96-0.5,1.47-1.28,1.47-2.26c0-0.66-0.24-1.23-0.73-1.68c-0.48-0.46-1.03-0.68-1.64-0.68c-0.28,0-0.51,0.02-0.71,0.06
				l-0.48,0.12c-0.66,0.2-1.33,0.3-2,0.3c-0.91,0-1.66-0.16-2.24-0.5c-0.5-0.28-0.75-1.03-0.75-2.23V149.5h5.54
				c0.73,0,1.33-0.25,1.81-0.75c0.47-0.49,0.71-1.09,0.71-1.77c0-0.72-0.24-1.33-0.71-1.81c-0.48-0.48-1.09-0.72-1.81-0.72h-5.54
				v-3.79c0-0.4-0.14-0.75-0.41-1.05c-0.56-0.61-1.47-0.66-2.27,0.14l-7.18,7.02c-0.42,0.33-0.65,0.77-0.65,1.26
				c0,0.41,0.14,0.76,0.42,1.04c0.28,0.28,0.64,0.42,1.04,0.42h3.31v15.99c0,4.95,2.76,7.46,8.2,7.46
				C513.88,172.95,515.43,172.61,516.88,171.94"/>
			<path style="clip-path:url(#SVGID_00000002364515177027168910000005812901905521416610_);" d="M528.77,144.18
				c-0.8,0-1.48,0.29-2.02,0.86c-0.54,0.56-0.82,1.25-0.82,2.04v22.76c0,0.8,0.28,1.48,0.83,2.02c0.54,0.54,1.23,0.82,2.02,0.82
				c0.79,0,1.48-0.27,2.04-0.82c0.57-0.54,0.86-1.23,0.86-2.03v-22.76c0-0.83-0.28-1.53-0.83-2.08
				C530.29,144.46,529.59,144.18,528.77,144.18"/>
			<path style="clip-path:url(#SVGID_00000002364515177027168910000005812901905521416610_);" d="M526.43,138.92
				c0.62,0.61,1.37,0.93,2.23,0.93h0.32c0.87,0,1.61-0.31,2.23-0.93c0.62-0.62,0.93-1.37,0.93-2.24v-0.21
				c0-0.87-0.31-1.61-0.93-2.23c-0.62-0.62-1.37-0.93-2.23-0.93h-0.32c-0.86,0-1.61,0.31-2.23,0.93c-0.62,0.61-0.93,1.36-0.93,2.23
				v0.21C525.5,137.55,525.81,138.3,526.43,138.92z"/>
			<path style="clip-path:url(#SVGID_00000002364515177027168910000005812901905521416610_);" d="M565.77,147.08
				c0-0.79-0.27-1.47-0.82-2.04c-0.55-0.57-1.23-0.86-2.03-0.86c-0.54,0-1.07,0.16-1.55,0.47c-0.48,0.31-0.83,0.71-1.05,1.2
				l-7.69,19.5l-7.7-19.53c-0.22-0.47-0.56-0.87-1.04-1.18c-0.48-0.31-1-0.47-1.55-0.47c-0.8,0-1.48,0.29-2.03,0.86
				c-0.54,0.56-0.82,1.25-0.82,2.04c0,0.38,0.1,0.81,0.3,1.29l9.23,22.07c0.28,0.64,0.72,1.18,1.32,1.6
				c0.6,0.42,1.29,0.64,2.02,0.64h0.53c0.73,0,1.41-0.22,2.01-0.64c0.6-0.42,1.05-0.96,1.33-1.61l9.23-22.07
				C565.68,147.88,565.77,147.46,565.77,147.08"/>
			<path style="clip-path:url(#SVGID_00000002364515177027168910000005812901905521416610_);" d="M577.43,155.75
				c0.15-1.43,0.56-2.66,1.21-3.64c0.73-1.09,1.64-1.9,2.73-2.42c2.2-1.03,4.52-1.03,6.72,0c1.09,0.51,2.02,1.33,2.76,2.42
				c0.67,0.98,1.09,2.2,1.23,3.64H577.43z M596.91,168.19c0-0.73-0.26-1.34-0.78-1.82c-0.51-0.47-1.11-0.71-1.8-0.71
				c-0.42,0-0.81,0.09-1.16,0.26c-1.03,0.52-2.1,0.91-3.17,1.19c-1.07,0.27-2.34,0.41-3.79,0.41c-2.66,0-4.76-0.66-6.22-1.96
				c-1.36-1.2-2.21-2.87-2.54-4.98h17.46c0.87,0,1.57-0.28,2.11-0.83c0.52-0.54,0.79-1.22,0.79-2.01c0-2.46-0.51-4.77-1.53-6.86
				c-1.02-2.1-2.54-3.81-4.52-5.07c-1.98-1.26-4.34-1.9-7.03-1.9c-2.87,0-5.33,0.69-7.32,2.04c-1.98,1.36-3.46,3.16-4.4,5.34
				c-0.94,2.17-1.42,4.57-1.42,7.13c0,4.56,1.27,8.16,3.77,10.69c2.5,2.54,6.01,3.83,10.43,3.83c2.16,0,3.95-0.2,5.33-0.6
				c1.37-0.4,2.77-1,4.19-1.79C596.37,169.94,596.91,169.14,596.91,168.19"/>
			<path style="clip-path:url(#SVGID_00000002364515177027168910000005812901905521416610_);" d="M393.51,202.75h-14.66
				c0.15-1.43,0.55-2.66,1.21-3.64c0.73-1.09,1.65-1.9,2.73-2.41c2.2-1.03,4.52-1.03,6.72,0c1.09,0.51,2.02,1.33,2.76,2.42
				C392.94,200.1,393.36,201.32,393.51,202.75 M393.19,192.82c-1.98-1.26-4.34-1.9-7.03-1.9c-2.87,0-5.33,0.69-7.32,2.04
				c-1.98,1.35-3.45,3.15-4.4,5.34c-0.94,2.17-1.41,4.57-1.41,7.13c0,4.56,1.27,8.16,3.76,10.69c2.5,2.54,6.01,3.82,10.43,3.82
				c2.16,0,3.95-0.2,5.32-0.6c1.37-0.39,2.78-1,4.19-1.79c1.07-0.62,1.61-1.41,1.61-2.36c0-0.73-0.26-1.34-0.78-1.82
				c-0.51-0.47-1.11-0.71-1.79-0.71c-0.42,0-0.81,0.09-1.16,0.26c-1.03,0.51-2.1,0.91-3.17,1.19c-1.07,0.27-2.34,0.41-3.79,0.41
				c-2.67,0-4.76-0.66-6.22-1.96c-1.36-1.2-2.21-2.88-2.54-4.98h17.46c0.87,0,1.58-0.28,2.11-0.83c0.52-0.55,0.79-1.22,0.79-2.02
				c0-2.46-0.52-4.77-1.53-6.86C396.68,195.79,395.16,194.08,393.19,192.82"/>
			<path style="clip-path:url(#SVGID_00000002364515177027168910000005812901905521416610_);" d="M428.33,192.37
				c-1.5-0.96-3.29-1.45-5.31-1.45c-2.19,0-4.12,0.46-5.74,1.39c-1.29,0.73-2.52,1.67-3.67,2.81v-1.04c0-0.79-0.28-1.48-0.85-2.05
				c-0.56-0.56-1.25-0.85-2.05-0.85c-0.8,0-1.48,0.29-2.03,0.86c-0.54,0.56-0.82,1.25-0.82,2.04v22.76c0,0.8,0.28,1.48,0.83,2.02
				c0.54,0.55,1.22,0.83,2.02,0.83c0.79,0,1.48-0.27,2.04-0.82s0.85-1.23,0.85-2.03v-15.75c1.18-1.45,2.44-2.63,3.75-3.49
				c1.31-0.87,2.83-1.3,4.49-1.3c3.63,0,5.38,1.97,5.38,6.01v14.53c0,0.8,0.28,1.48,0.83,2.02c0.54,0.55,1.23,0.83,2.02,0.83
				c0.79,0,1.48-0.27,2.04-0.82c0.57-0.54,0.86-1.23,0.86-2.03v-15.06c0-1.97-0.4-3.8-1.19-5.45
				C430.99,194.67,429.83,193.33,428.33,192.37"/>
			<path style="clip-path:url(#SVGID_00000002364515177027168910000005812901905521416610_);" d="M463.5,191.19
				c-0.55,0-1.07,0.16-1.55,0.47c-0.48,0.31-0.83,0.71-1.05,1.19l-7.69,19.51l-7.7-19.53c-0.21-0.47-0.56-0.86-1.04-1.17
				c-0.48-0.32-1-0.47-1.55-0.47c-0.8,0-1.48,0.29-2.03,0.86c-0.54,0.56-0.81,1.25-0.81,2.04c0,0.38,0.1,0.82,0.3,1.29l9.23,22.07
				c0.28,0.64,0.73,1.18,1.32,1.6c0.61,0.42,1.29,0.64,2.02,0.64h0.53c0.73,0,1.41-0.21,2.01-0.64c0.6-0.42,1.05-0.96,1.33-1.6
				l9.23-22.07c0.2-0.48,0.3-0.91,0.3-1.29c0-0.79-0.28-1.47-0.82-2.04C464.98,191.48,464.3,191.19,463.5,191.19"/>
			<path style="clip-path:url(#SVGID_00000002364515177027168910000005812901905521416610_);" d="M477.24,180.31h-0.32
				c-0.87,0-1.62,0.31-2.24,0.93s-0.93,1.37-0.93,2.23v0.21c0,0.87,0.31,1.61,0.93,2.23v0c0.62,0.61,1.37,0.93,2.24,0.93h0.32
				c0.87,0,1.61-0.31,2.23-0.93c0.62-0.62,0.93-1.37,0.93-2.24v-0.21c0-0.86-0.31-1.61-0.93-2.23
				C478.86,180.62,478.1,180.31,477.24,180.31"/>
			<path style="clip-path:url(#SVGID_00000002364515177027168910000005812901905521416610_);" d="M477.03,191.19
				c-0.8,0-1.48,0.29-2.03,0.86c-0.54,0.56-0.82,1.25-0.82,2.04v22.76c0,0.8,0.28,1.48,0.83,2.02c0.54,0.54,1.23,0.82,2.02,0.82
				s1.48-0.27,2.04-0.82c0.56-0.54,0.85-1.23,0.85-2.03v-22.76c0-0.83-0.28-1.53-0.82-2.07
				C478.55,191.46,477.85,191.19,477.03,191.19"/>
			<path style="clip-path:url(#SVGID_00000002364515177027168910000005812901905521416610_);" d="M504.45,190.92h-0.26
				c-2.88,0-5.52,1.39-7.87,4.14v-0.98c0-0.79-0.29-1.48-0.85-2.05c-0.56-0.56-1.26-0.85-2.05-0.85c-0.8,0-1.48,0.29-2.03,0.86
				c-0.54,0.56-0.82,1.25-0.82,2.04v22.76c0,0.79,0.28,1.47,0.82,2.02c0.54,0.54,1.23,0.83,2.02,0.83c0.79,0,1.48-0.28,2.04-0.82
				c0.57-0.55,0.86-1.23,0.86-2.03v-15.99c0.9-1.33,2.02-2.4,3.33-3.16c1.34-0.79,2.83-1.19,4.44-1.19h0.27
				c0.82,0,1.51-0.26,2.06-0.76c0.55-0.51,0.83-1.18,0.83-1.98c0-0.79-0.26-1.47-0.79-2.02
				C505.92,191.2,505.25,190.92,504.45,190.92"/>
			<path style="clip-path:url(#SVGID_00000002364515177027168910000005812901905521416610_);" d="M533.97,205.38
				c0,2.14-0.41,3.91-1.23,5.28c-0.82,1.37-1.86,2.38-3.1,3.01c-2.54,1.29-5.49,1.26-7.97,0c-1.24-0.63-2.27-1.64-3.07-3.01
				c-0.81-1.37-1.21-3.15-1.21-5.28c0-2.1,0.41-3.86,1.21-5.24c0.8-1.36,1.83-2.37,3.07-2.98c1.26-0.62,2.61-0.93,4.02-0.93
				c1.37,0,2.7,0.31,3.96,0.93c1.24,0.61,2.28,1.61,3.1,2.98C533.55,201.53,533.97,203.28,533.97,205.38 M533.01,192.73
				c-2.11-1.2-4.58-1.81-7.33-1.81c-2.8,0-5.28,0.61-7.39,1.81c-2.12,1.21-3.77,2.94-4.92,5.14c-1.15,2.2-1.72,4.74-1.72,7.56
				c0,2.82,0.58,5.36,1.72,7.56c1.15,2.21,2.8,3.94,4.92,5.14c2.11,1.2,4.6,1.81,7.39,1.81c2.75,0,5.22-0.61,7.33-1.81
				c2.12-1.21,3.78-2.93,4.95-5.14c1.16-2.2,1.75-4.74,1.75-7.56c0-2.82-0.59-5.36-1.75-7.56
				C536.79,195.66,535.12,193.93,533.01,192.73"/>
			<path style="clip-path:url(#SVGID_00000002364515177027168910000005812901905521416610_);" d="M569.18,192.37
				c-1.5-0.96-3.29-1.45-5.31-1.45c-2.19,0-4.12,0.46-5.74,1.39c-1.29,0.73-2.52,1.67-3.67,2.81v-1.04c0-0.79-0.29-1.48-0.85-2.05
				c-0.56-0.56-1.25-0.85-2.05-0.85c-0.8,0-1.48,0.29-2.03,0.86c-0.54,0.56-0.82,1.25-0.82,2.04v22.76c0,0.79,0.28,1.47,0.82,2.02
				c0.54,0.55,1.23,0.83,2.02,0.83c0.79,0,1.48-0.27,2.04-0.82c0.57-0.54,0.86-1.23,0.86-2.03v-15.75c1.17-1.45,2.43-2.63,3.75-3.49
				c1.31-0.87,2.83-1.3,4.49-1.3c3.62,0,5.38,1.97,5.38,6.01v14.53c0,0.8,0.28,1.48,0.83,2.02c0.54,0.55,1.22,0.83,2.02,0.83
				c0.79,0,1.48-0.27,2.04-0.82c0.57-0.54,0.86-1.23,0.86-2.03v-15.06c0-1.97-0.4-3.8-1.19-5.45
				C571.84,194.67,570.68,193.33,569.18,192.37"/>
			<path style="clip-path:url(#SVGID_00000002364515177027168910000005812901905521416610_);" d="M621.62,192.5
				c-1.4-1.05-3.16-1.58-5.23-1.58c-4.17,0-7.43,1.67-9.69,4.97c-0.65-1.26-1.59-2.36-2.82-3.29c-1.49-1.11-3.3-1.68-5.36-1.68
				c-2.31,0-4.22,0.49-5.69,1.45c-1.07,0.71-2.03,1.56-2.88,2.55v-0.84c0-0.79-0.28-1.48-0.85-2.04c-0.56-0.56-1.25-0.85-2.05-0.85
				c-0.79,0-1.48,0.28-2.02,0.85c-0.54,0.56-0.82,1.25-0.82,2.04v22.76c0,0.8,0.28,1.48,0.82,2.02c0.54,0.54,1.23,0.82,2.02,0.82
				c0.79,0,1.48-0.28,2.04-0.82c0.57-0.54,0.85-1.23,0.85-2.03v-15.79c0.87-1.42,1.88-2.58,2.98-3.45c1.1-0.87,2.51-1.31,4.2-1.31
				c1.82,0,3.11,0.48,3.83,1.44c0.75,0.99,1.13,2.61,1.13,4.79v14.32c0,0.8,0.28,1.48,0.83,2.02c0.54,0.55,1.22,0.83,2.02,0.83
				c0.79,0,1.48-0.28,2.04-0.82c0.57-0.54,0.86-1.23,0.86-2.03v-15.79c0.87-1.42,1.87-2.58,2.98-3.45c1.09-0.87,2.51-1.31,4.2-1.31
				c1.82,0,3.1,0.48,3.83,1.44c0.75,0.99,1.13,2.61,1.13,4.79v14.32c0,0.8,0.28,1.48,0.82,2.02c0.54,0.55,1.22,0.83,2.02,0.83
				c0.79,0,1.48-0.28,2.04-0.82c0.56-0.54,0.85-1.23,0.85-2.03v-15.28c0-1.75-0.33-3.45-0.99-5.06
				C624.05,194.89,623.01,193.54,621.62,192.5"/>
			<path style="clip-path:url(#SVGID_00000002364515177027168910000005812901905521416610_);" d="M654.93,202.75h-14.66
				c0.15-1.43,0.55-2.66,1.21-3.64c0.73-1.09,1.64-1.9,2.73-2.41c2.2-1.03,4.52-1.03,6.72,0c1.09,0.51,2.02,1.32,2.76,2.42
				C654.37,200.1,654.78,201.32,654.93,202.75 M654.61,192.82c-1.98-1.26-4.34-1.9-7.03-1.9c-2.87,0-5.34,0.69-7.32,2.04
				c-1.98,1.35-3.46,3.15-4.4,5.34c-0.94,2.17-1.42,4.57-1.42,7.13c0,4.56,1.27,8.16,3.77,10.69c2.5,2.54,6.01,3.82,10.43,3.82
				c2.16,0,3.95-0.2,5.33-0.6c1.37-0.39,2.78-1,4.19-1.79c1.07-0.61,1.61-1.41,1.61-2.36c0-0.73-0.26-1.34-0.79-1.82
				c-0.5-0.47-1.11-0.71-1.79-0.71c-0.42,0-0.81,0.09-1.15,0.26c-1.03,0.51-2.1,0.91-3.17,1.19c-1.07,0.27-2.34,0.41-3.79,0.41
				c-2.66,0-4.76-0.66-6.22-1.96c-1.35-1.2-2.21-2.88-2.54-4.98h17.46c0.87,0,1.57-0.28,2.11-0.83c0.52-0.55,0.79-1.23,0.79-2.02
				c0-2.46-0.51-4.77-1.53-6.86C658.1,195.79,656.59,194.08,654.61,192.82"/>
			<path style="clip-path:url(#SVGID_00000002364515177027168910000005812901905521416610_);" d="M689.76,192.37
				c-1.5-0.96-3.29-1.45-5.31-1.45c-2.19,0-4.12,0.46-5.74,1.39c-1.29,0.73-2.52,1.67-3.67,2.81v-1.04c0-0.79-0.29-1.48-0.85-2.05
				c-0.56-0.56-1.25-0.85-2.05-0.85c-0.8,0-1.48,0.29-2.03,0.86c-0.54,0.56-0.82,1.25-0.82,2.04v22.76c0,0.8,0.28,1.47,0.83,2.02
				c0.54,0.55,1.22,0.83,2.02,0.83c0.79,0,1.48-0.27,2.04-0.82c0.57-0.54,0.86-1.23,0.86-2.03v-15.75c1.17-1.45,2.43-2.63,3.75-3.49
				c1.31-0.87,2.83-1.3,4.49-1.3c3.62,0,5.38,1.97,5.38,6.01v14.53c0,0.8,0.28,1.48,0.83,2.02c0.54,0.55,1.23,0.83,2.02,0.83
				c0.79,0,1.48-0.27,2.04-0.82c0.57-0.54,0.86-1.23,0.86-2.03v-15.06c0-1.97-0.4-3.8-1.19-5.45
				C692.42,194.67,691.26,193.33,689.76,192.37"/>
			<path style="clip-path:url(#SVGID_00000002364515177027168910000005812901905521416610_);" d="M717.65,214.32
				c-0.27,0-0.51,0.02-0.71,0.06l-0.48,0.11c-0.66,0.2-1.33,0.3-1.99,0.3c-0.91,0-1.66-0.17-2.24-0.5c-0.5-0.28-0.75-1.03-0.75-2.23
				V196.5h5.54c0.73,0,1.34-0.25,1.81-0.75c0.47-0.49,0.71-1.09,0.71-1.77c0-0.73-0.24-1.33-0.72-1.81
				c-0.47-0.48-1.08-0.72-1.81-0.72h-5.54v-3.79c0-0.4-0.14-0.75-0.41-1.05c-0.55-0.61-1.47-0.67-2.27,0.14l-7.18,7.02
				c-0.43,0.33-0.65,0.77-0.65,1.26c0,0.4,0.15,0.76,0.42,1.03c0.28,0.28,0.63,0.43,1.04,0.43h3.31v15.99c0,4.95,2.76,7.46,8.2,7.46
				c1.61,0,3.16-0.34,4.62-1.01c0.96-0.5,1.47-1.28,1.47-2.26c0-0.65-0.24-1.22-0.73-1.68
				C718.82,214.55,718.27,214.32,717.65,214.32"/>
			<path style="clip-path:url(#SVGID_00000002364515177027168910000005812901905521416610_);" d="M745.99,206.94
				c-0.99-1.15-2.18-2-3.55-2.54c-1.32-0.52-3.06-1.05-5.16-1.59c-2.04-0.44-3.56-0.91-4.51-1.39c-0.84-0.42-1.23-1.04-1.23-1.93
				c0-0.94,0.46-1.69,1.41-2.3c1-0.64,2.42-0.96,4.23-0.96c1.92,0,3.91,0.31,5.94,0.94c0.32,0.08,0.58,0.12,0.8,0.12
				c0.73,0,1.35-0.26,1.84-0.78c0.48-0.51,0.73-1.12,0.73-1.8c0-0.51-0.16-1.01-0.48-1.48c-0.32-0.48-0.79-0.81-1.36-0.97
				c-2.45-0.9-5.09-1.35-7.85-1.35c-3.42,0-6.1,0.82-7.96,2.45c-1.88,1.64-2.83,3.79-2.83,6.39c0,1.87,0.53,3.41,1.57,4.58
				c1.01,1.13,2.25,1.98,3.67,2.54c1.39,0.54,3.14,1.06,5.22,1.55c2.02,0.52,3.49,1,4.35,1.4c0.98,0.46,1.09,1.05,1.09,1.44
				c0,0.82,0,3.31-5.43,3.31c-1.37,0-2.62-0.14-3.71-0.41c-1.11-0.28-2.23-0.66-3.32-1.14c-0.38-0.17-0.76-0.26-1.14-0.26
				c-0.73,0-1.35,0.27-1.82,0.79c-0.46,0.51-0.71,1.11-0.71,1.79c0,0.9,0.37,1.61,1.1,2.12l0.04,0.03c2.95,1.62,6.27,2.44,9.87,2.44
				c3.35,0,5.99-0.79,7.85-2.34c1.89-1.57,2.84-3.58,2.84-5.97C747.5,209.7,746.99,208.12,745.99,206.94"/>
		</g>
		<g>
			<defs>
				<rect id="SVGID_00000155865135433629462820000001884700403054563494_" width="345.33" height="347.89"/>
			</defs>
			<clipPath id="SVGID_00000016787862970979887420000006589008956202077317_">
				<use xlink:href="#SVGID_00000155865135433629462820000001884700403054563494_"  style="overflow:visible;"/>
			</clipPath>
			<g style="opacity:0.4;clip-path:url(#SVGID_00000016787862970979887420000006589008956202077317_);">
				<g>
					<defs>
						<rect id="SVGID_00000034080672777396930980000016366984534087469452_" x="43.78" y="6.28" width="285.83" height="309.13"/>
					</defs>
					<clipPath id="SVGID_00000036962502524352281420000018104062928564168369_">
						<use xlink:href="#SVGID_00000034080672777396930980000016366984534087469452_"  style="overflow:visible;"/>
					</clipPath>
					<g style="clip-path:url(#SVGID_00000036962502524352281420000018104062928564168369_);">
						<defs>
							<rect id="SVGID_00000084508898420429879480000007973310810783524996_" x="43.78" y="6.28" width="285.83" height="309.13"/>
						</defs>
						<clipPath id="SVGID_00000091694893725648132140000011690134246163673992_">
							<use xlink:href="#SVGID_00000084508898420429879480000007973310810783524996_"  style="overflow:visible;"/>
						</clipPath>
						<path style="clip-path:url(#SVGID_00000091694893725648132140000011690134246163673992_);" d="M99.86,41.43
							c-0.32,0.15-0.65,0.3-0.97,0.45l0.01-0.01c0,0,0-0.01,0.01-0.01C99.23,41.72,99.54,41.58,99.86,41.43"/>
						<path style="clip-path:url(#SVGID_00000091694893725648132140000011690134246163673992_);" d="M324.72,171.76
							c-0.01-0.02-0.01-0.05-0.01-0.08C324.71,171.71,324.71,171.74,324.72,171.76c0.09,0.55,0.18,1.11,0.27,1.66
							C324.91,172.87,324.81,172.32,324.72,171.76 M324.72,171.76c-0.01-0.02-0.01-0.05-0.01-0.08
							C324.71,171.71,324.71,171.74,324.72,171.76c0.09,0.55,0.18,1.11,0.27,1.66C324.91,172.87,324.81,172.32,324.72,171.76"/>
						<path style="clip-path:url(#SVGID_00000091694893725648132140000011690134246163673992_);" d="M329.6,186.38
							c-0.08-12.2-1.6-24.36-4.43-36.22l0,0c0-0.01-0.01-0.02-0.01-0.03c-0.04-0.51-0.1-1.02-0.17-1.53
							c-0.1-0.93-0.21-1.84-0.32-2.76c-0.13-0.91-0.24-1.83-0.38-2.76c-0.08-0.6-0.18-1.22-0.26-1.82
							c-0.71-4.56-1.58-9.05-2.61-13.44c-7.39-31.75-22.95-59.56-43.53-80.71c-0.95-0.97-12.89-11.84-12.91-11.86
							c-0.88-0.71-6.72-4.78-8.58-6.11c-10.74-6.13-18.25-11.43-30.53-15.23c-16.94-5.24-37.75-7.62-54.58-7.62
							c-4.25,0-8.49,0.16-12.69,0.48c-2.03,0.15-4.05,0.46-6.03,0.96c-5.49,1.39-10.82,3.13-15.97,5.25h-0.01
							c-1.58,0.65-3.14,1.33-4.68,2.04c-1.63,0.75-3.22,1.49-4.84,2.24c-0.17,0.08-0.34,0.16-0.51,0.24
							c-0.05,0.02-0.11,0.04-0.15,0.06c-11.2,5.15-21.49,12.01-30.69,20.25c0,0,0,0,0,0c-4.23,3.79-8.23,7.87-11.98,12.22
							c-2.22,2.58-4.36,5.25-6.4,8c0,0,0,0,0,0c-3.56,4.78-6.84,9.85-9.82,15.14l-0.01,0l0,0.01h0l0,0.01H67.5
							c-0.6,1.07-3.41,6.25-4.68,8.99c-0.1,0.24-17.67,44.84-18.82,68.74c-0.44,9.2-0.34,19.18,1.13,28.72
							c10.35,66.98,63.8,119.88,119.19,134.13c0,0,6.79,1.42,8.35,1.49c14.5,0.58,25.68-0.43,42.14-3.14
							c5.1-0.85,22.13-7.07,22.13-7.07c1.01-0.42,2.11-0.83,3.1-1.29c0.3-0.13,0.58-0.27,0.87-0.41l0.33-0.16
							c0.44-0.22,0.88-0.42,1.32-0.62c0.01,0,0.02-0.01,0.03-0.01c0.04-0.02,0.07-0.04,0.11-0.06c-1.32,0.56-2.64,1.11-3.97,1.62
							c24.87-14.73,45.25-37.35,56.95-66.17c1.69-4.17,3.17-8.39,4.43-12.64c-1.32,1.89-6.44,12.81-8.01,15.95l-10.03,15.34
							c-4.03,8.11-55.33,49.08-89.08,55.24h-0.01c-4.64,0.85-11.64,0.83-7.01-0.02c-65.16-2.12-121.76-57.77-133.47-133.53
							c-5.53-35.87,5.34-70.96,19.61-99.39h-0.01c0.09-0.19,0.3-0.59,0.3-0.59c1.18-2.32,8.7-16.38,8.7-16.38
							c2.83-4.1,11.29-13.2,11.29-13.21c0,0,0,0,0,0h0.02l-0.01-0.01c0.52-0.58,6.21-6.53,6.46-6.79l0-0.01c0,0,0.01-0.01,0.01-0.02
							c0.23-0.22,3.94-3.71,4.72-4.4c0.54-0.48,1.07-0.94,1.63-1.41c1.09-0.94,2.19-1.85,3.32-2.74c1.11-0.9,2.24-1.77,3.39-2.62h0
							c5.8-4.31,11.98-8.11,18.48-11.3c0,0,0.01,0,0.01,0c9.43-4.06,18.58-8.01,29.16-9.45l4.28-0.44h0.01
							c1.23-0.06,2.48-0.09,3.72-0.12c1.22-0.03,2.45-0.04,3.68-0.04c1.04,0,2.06,0.01,3.1,0.04c0.75,0.01,1.48,0.02,2.22,0.06
							c0.48,0.01,0.97,0.02,1.46,0.04c1.88,0.08,3.78,0.18,5.67,0.33c1.05,0.08,2.08,0.16,3.12,0.27c1.05,0.08,2.09,0.2,3.14,0.32
							c2.09,0.23,4.18,0.5,6.26,0.82c1.05,0.16,2.08,0.32,3.14,0.5c0.77,0.14,1.56,0.28,2.34,0.42c0.62,0.1,1.24,0.23,1.86,0.35
							c0.87,0.16,1.73,0.34,2.6,0.52c0.86,0.19,1.73,0.38,2.58,0.57c1.29,0.3,2.57,0.6,3.85,0.93c1.58,0.4,3.16,0.83,4.74,1.28
							c1.31,0.36,2.62,0.75,3.92,1.15c0.42,0.13,0.83,0.26,1.24,0.39c0.28,0.09,0.56,0.18,0.84,0.27c-0.01-0.01-0.02-0.01-0.04-0.02
							c0.01,0.01,0.02,0.01,0.04,0.01c0.69,0.22,1.38,0.45,2.07,0.69c0.42,0.14,0.83,0.27,1.23,0.42c0.62,0.2,1.23,0.41,1.85,0.64
							c1.01,0.36,2.04,0.74,3.04,1.13c0.93,0.34,1.84,0.7,2.74,1.06c0.18,0.08,0.37,0.15,0.55,0.23c0.91,0.36,1.81,0.74,2.7,1.12
							c26.83,14.81,49.67,38.92,64.57,68.98c-3.71-5.28-7.74-10.36-12.07-15.21c4.42,6.82,8.4,14.06,11.88,21.66
							c0.63,1.39,1.24,2.79,1.85,4.2v0c2.22,5.24,4.21,10.64,5.93,16.19c0,0.02,0.02,0.03,0.02,0.06c0.27,0.86,0.54,1.71,0.78,2.58
							c1.4,4.74,2.6,9.59,3.6,14.53c0.56,2.74,1.05,5.5,1.49,8.3c10.62,68.86-20.73,132.61-72.91,158.31
							c0.39-0.18,0.78-0.34,1.17-0.51c0.53-0.23,1.07-0.48,1.61-0.73c20.13-9.28,37.28-24.15,50.31-42.77
							c-13.16,20.46-31,36.92-52.17,47.23c-0.79,0.39-1.58,0.77-2.38,1.13c1.42-0.64,2.82-1.29,4.24-1.93
							c0.42-0.19,0.83-0.38,1.24-0.56c45.06-20.78,75.59-69,79.04-125.15v-0.01c0.21-3.47,0.32-6.94,0.32-10.46
							c0-0.36-0.01-0.71-0.01-1.07c-0.01-1.69-0.04-3.41-0.1-5.12c0.09,0.4,0.18,0.81,0.27,1.21
							C327.94,171.21,329.04,178.78,329.6,186.38 M48.31,174.79c7.43,51.84,31.91,76.36,33.68,78.4c-32-34.31-36.1-77.75-36.1-77.75
							c-5.22-53.52,19.36-86.7,20.59-88.73C65.44,88.58,40.79,122.26,48.31,174.79"/>
					</g>
				</g>
			</g>
			<g style="opacity:0.4;clip-path:url(#SVGID_00000016787862970979887420000006589008956202077317_);">
				<g>
					<defs>
						<rect id="SVGID_00000018943004761189628010000002001721706964851120_" x="101.48" y="9.73" width="223.51" height="163.69"/>
					</defs>
					<clipPath id="SVGID_00000179629063229532233430000001461149660068061575_">
						<use xlink:href="#SVGID_00000018943004761189628010000002001721706964851120_"  style="overflow:visible;"/>
					</clipPath>
					<g style="clip-path:url(#SVGID_00000179629063229532233430000001461149660068061575_);">
						<defs>
							<rect id="SVGID_00000175292305760706532380000007206532531855267262_" x="101.49" y="9.73" width="223.51" height="163.69"/>
						</defs>
						<clipPath id="SVGID_00000066483226415528379570000016935295400359649710_">
							<use xlink:href="#SVGID_00000175292305760706532380000007206532531855267262_"  style="overflow:visible;"/>
						</clipPath>
						<path style="clip-path:url(#SVGID_00000066483226415528379570000016935295400359649710_);" d="M139.87,12.32L139.87,12.32
							c-3.66,1.17-7.24,2.5-10.73,4.01c-10.02,4.93-19.28,11.24-27.66,18.69c2.03-0.93,4.08-1.81,6.16-2.65v-0.01
							c6.28-4.54,12.96-8.48,20.01-11.73c0.34-0.16,0.68-0.3,1.01-0.45c1.49-0.69,2.98-1.4,4.47-2.08
							c7.95-3.65,16.37-6.46,25.18-8.26C152.1,10.33,145.94,11.16,139.87,12.32 M158.34,9.84c0,0-0.01,0-0.02,0
							c0.56-0.04,1.11-0.08,1.67-0.12L158.34,9.84z M317.41,127.59c0.73,1.67,1.44,3.36,2.12,5.06
							C318.86,130.95,318.15,129.27,317.41,127.59 M324.72,171.76c-0.01-0.02-0.01-0.05-0.01-0.08
							C324.71,171.71,324.71,171.74,324.72,171.76c0.09,0.55,0.18,1.11,0.27,1.66C324.91,172.87,324.81,172.32,324.72,171.76"/>
					</g>
				</g>
			</g>
			<g style="opacity:0.8;clip-path:url(#SVGID_00000016787862970979887420000006589008956202077317_);">
				<g>
					<defs>
						<rect id="SVGID_00000036212882596931264760000003321493173632066692_" x="24.08" y="35.56" width="284.42" height="279.75"/>
					</defs>
					<clipPath id="SVGID_00000067920807728682030330000015655903636760974210_">
						<use xlink:href="#SVGID_00000036212882596931264760000003321493173632066692_"  style="overflow:visible;"/>
					</clipPath>
					<g style="clip-path:url(#SVGID_00000067920807728682030330000015655903636760974210_);">
						<defs>
							<rect id="SVGID_00000008119105300505817210000017592167119819010229_" x="24.08" y="35.56" width="284.42" height="279.75"/>
						</defs>
						<clipPath id="SVGID_00000054250071646083404960000014815378994821866165_">
							<use xlink:href="#SVGID_00000008119105300505817210000017592167119819010229_"  style="overflow:visible;"/>
						</clipPath>
						<path style="clip-path:url(#SVGID_00000054250071646083404960000014815378994821866165_);" d="M215.95,304.16L215.95,304.16
							c0.45-0.16,0.91-0.32,1.35-0.48C216.85,303.84,216.4,304,215.95,304.16"/>
						<path style="clip-path:url(#SVGID_00000054250071646083404960000014815378994821866165_);" d="M222.85,47.9
							c-1.07-0.47-2.16-0.92-3.25-1.37c-12.93-5.27-26.17-8.58-39.38-10.06h-0.02c-5.44-0.61-10.88-0.91-16.29-0.91
							c-28.94,0-56.99,8.61-80.26,24.3c-0.34,0.23-0.68,0.46-1.02,0.69c-0.01,0-12.13,9.32-14.69,11.66
							c-13.86,12.65-25.19,28.3-32.83,46.48c-4.67,11.07-7.69,22.46-9.17,33.87c-0.24,1.9-0.49,3.81-0.74,5.71
							c-0.02,0.15-0.04,0.3-0.06,0.46c-2.5,19.21-0.63,38.52,5.07,56.71v0.01c4.22,13.46,10.54,26.29,18.73,38.02
							c10.49,15.02,24.07,28.22,40.28,38.58c7.38,4.72,15.32,8.84,23.74,12.28c18.24,7.44,37.13,10.97,55.65,10.97
							c16.11,0,31.94-2.67,46.83-7.74h0.01c2.61-0.89,5.18-1.85,7.72-2.88c5.25-2.14,10.36-4.57,15.3-7.3
							c0.56-0.31,1.13-0.63,1.68-0.95c25.03-14.3,45.52-36.26,57.29-64.25c2.32-5.55,4.25-11.17,5.77-16.82
							c1.53-5.66,2.65-11.35,3.39-17.05c0.01-0.08,0.02-0.15,0.03-0.22v-0.02c0.26-1.99,0.52-3.99,0.77-5.95
							C315.06,133.24,281.77,73.55,222.85,47.9 M25.59,155.67c0.01-0.01,0.01-0.02,0.01-0.02c1.6-10.37,4.47-20.68,8.71-30.76
							c2.77-6.58,6.02-12.83,9.7-18.73c-3.85,7.24-7.02,14.71-9.51,22.35c-0.6,1.81-1.89,5.78-1.92,5.89
							c-5.26,16.14-7.5,32.95-6.87,49.71C24.65,174.72,24.59,165.19,25.59,155.67 M28.81,183.59c-1-9.03-1.05-18.19-0.1-27.36v-0.01
							c1.56-10.16,4.37-20.28,8.55-30.16v0c2.74-6.51,5.95-12.69,9.6-18.51c-3.8,7.14-6.92,14.5-9.36,22.01
							c-0.66,1.98-1.31,3.94-1.93,5.9C30.46,151.1,28.27,167.37,28.81,183.59 M215.95,304.17L215.95,304.17
							c0.45-0.16,0.91-0.33,1.35-0.49C216.85,303.85,216.4,304.01,215.95,304.17 M213.96,302.94c1.68-0.22,3.35-0.48,5-0.77
							C217.31,302.46,215.64,302.72,213.96,302.94 M194.17,303.93c-4.85,0.85-14.97,1.83-15.1,1.83h-0.01
							c-3.2,0.22-14.55,0.27-16.99,0.14c-15.75-0.81-31.67-4.23-47.12-10.54c-35.41-14.45-61.74-41.29-75.69-73
							c-0.01-0.02-0.02-0.05-0.03-0.07c-10.28-29.01-11.52-60.5-2.66-89.87c3.71-10.54,8.76-20.76,15.21-30.44
							c1.85-2.78,3.78-5.47,5.79-8.07c2.15-2.77,4.39-5.46,6.71-8.03c1.5-1.67,3.05-3.29,4.62-4.87c0.01,0,0.01-0.01,0.02-0.01
							c0,0,0,0,0-0.01c1.21-1.11,2.43-2.2,3.67-3.26h0c24.76-21.16,57.06-32.97,90.61-32.97c18.11,0,36.58,3.45,54.42,10.72
							c58.51,23.86,92.22,81.59,86.26,139.15v0.03c-1.58,10.16-4.38,20.26-8.54,30.13C277.32,267.71,238.34,296.14,194.17,303.93
							 M307,195.11L307,195.11c-1.59,10.41-4.47,20.77-8.74,30.9c-4.84,11.51-11.14,21.98-18.64,31.34
							c5.89-8.03,10.93-16.84,14.94-26.36c4.55-10.84,7.49-21.96,8.95-33.12c0-0.06,0.01-0.1,0.02-0.16c0-0.01,0.01-0.02,0.01-0.04
							c0.25-2,0.51-4,0.78-5.99c2.83-21.85-0.11-43.83-7.99-64.05C305.56,148.74,309.42,171.94,307,195.11"/>
					</g>
				</g>
			</g>
		</g>
		<polygon class="st22" points="280.92,295.54 280.92,295.55 280.92,295.54 		"/>
		<g>
			<defs>
				<rect id="SVGID_00000078740937306253933010000005798447065849041050_" width="345.33" height="347.89"/>
			</defs>
			<clipPath id="SVGID_00000143600299388813318580000016211180029814765713_">
				<use xlink:href="#SVGID_00000078740937306253933010000005798447065849041050_"  style="overflow:visible;"/>
			</clipPath>
			<path style="clip-path:url(#SVGID_00000143600299388813318580000016211180029814765713_);" d="M322.17,126.4v-0.01
				c-4.93-12.36-11.41-24.2-19.31-35.18l0-0.01c-3.72-5.16-7.76-10.13-12.1-14.89c0,0,0-0.01-0.01-0.01
				c-12.8-14.01-28.25-26.11-46.1-35.46c-24.83-13.01-51.37-19.18-77.35-19.18c-19.01,0-37.7,3.3-55.21,9.64
				c-1.45,0.53-10.51,4.25-10.52,4.25c-1.94,0.86-5.77,2.71-5.78,2.71c-28.1,13.93-51.98,36.26-67.35,65.78
				c-6.36,12.2-10.87,24.93-13.66,37.85c-0.03,0.14-0.06,0.27-0.08,0.4c-0.38,1.81-0.78,3.62-1.17,5.44
				c-0.01,0.09-0.04,0.21-0.06,0.3v0.01c-7.31,33.91-2.63,69.2,12.19,100.38c9.53,20.04,23.25,38.38,40.68,53.58
				c9.74,8.49,20.63,16,32.6,22.27c9.25,4.84,18.74,8.75,28.36,11.73h0c16.19,5.03,32.7,7.45,49,7.45
				c35.08,0,69.14-11.25,96.52-32.11c-0.44,0.31-0.44,0.3,0,0c12.49-9.51,23.6-21.03,32.78-34.39c3.46-5.02,6.64-10.31,9.53-15.85
				c2.11-4.05,4.02-8.16,5.72-12.31c3.45-8.37,6.09-16.92,7.95-25.56c0.09-0.42,0.18-0.85,0.27-1.27c0,0,0-0.01,0-0.02
				c0.35-1.61,0.7-3.23,1.04-4.84C336.7,186.64,333.59,155.09,322.17,126.4 M14.13,145.08c2.81-11.91,7.12-23.62,13.01-34.91
				c6.56-12.6,14.67-23.89,23.99-33.77c-7.62,8.7-14.32,18.42-19.88,29.09l0,0.01c-6.23,11.99-10.67,24.46-13.4,37.13
				c-0.08,0.38-0.16,0.76-0.24,1.14c-0.35,1.67-0.72,3.33-1.07,4.98v0.01c-5.38,24.93-4.15,50.63,2.93,74.8
				C11.12,198.38,9.06,171.37,14.13,145.08 M280.93,295.54L280.93,295.54l-0.01,0.02l-0.01,0.01
				c-12.62,10.78-26.96,19.08-42.3,24.78h0c-16.4,6.11-33.94,9.23-51.74,9.23c-29.54,0-60.29-8.66-87.59-25.41
				c-4.08-2.5-29.16-19.23-46.42-43.18c-3.16-4.38-6.59-8.57-9.35-13.2c-5.74-9.61-10.32-19.84-13.61-30.46
				c9.23,36.83,32.11,70.97,66.72,94.1c4.45,2.98,8.99,5.7,13.61,8.18c-2.87-1.3-5.72-2.68-8.54-4.16
				C37.33,281.72,4.58,211.54,17.18,145.88v-0.01c2.76-11.67,6.99-23.16,12.76-34.24c5.77-11.08,12.76-21.13,20.75-30.08
				c7.98-8.95,16.95-16.8,26.67-23.48c2.35-1.61,12.92-7.98,15.14-9.15v-0.01c22.31-11.75,47.5-18,73.28-18.05
				c-29.88,1.38-58.75,11.43-82.48,29.41c-0.38,0.29-0.76,0.58-1.14,0.87c0.34-0.24,0.68-0.46,1.02-0.7
				c23.2-15.81,51.17-23.93,80.03-24.49c16.79-0.32,29.5,0.85,42.6,3.79c11.33,2.54,22.19,6.88,32.21,12.75
				c6.87,4.03,13.6,8.44,20.1,12.78c26.16,17.5,45.16,42.43,56.78,69c1.96,4.47,5.16,13.16,5.22,13.65
				c3.08,9.39,5.25,19.02,6.46,28.73v0c2.26,18.17,1.17,36.65-3.5,54.44v0.01c-2.48,7.59-5.61,15.06-9.41,22.35
				C305.15,269.81,293.99,283.91,280.93,295.54 M322.8,232.63c-0.26,0.81-0.56,1.74-0.86,2.69
				C322.24,234.37,322.54,233.44,322.8,232.63 M324.3,238.27c0.19-0.61,0.38-1.23,0.56-1.85c0,0,0,0,0,0
				C324.68,237.04,324.49,237.66,324.3,238.27 M329.49,219.96C329.48,219.96,329.48,219.97,329.49,219.96
				c-0.11,0.45-0.22,0.89-0.32,1.34c0.18-0.83,0.36-1.66,0.54-2.49C329.63,219.19,329.55,219.58,329.49,219.96 M326.02,232.27
				c-2.52,7.7-5.71,15.28-9.56,22.68c-1.16,2.22-2.37,4.4-3.61,6.54l0,0.01c-5.91,10.11-12.85,19.29-20.64,27.5
				c5-5.7,9.62-11.83,13.77-18.38c0.01-0.01,0.02-0.02,0.03-0.04c2.24-3.54,4.35-7.2,6.31-10.98c6.25-11.97,10.68-24.45,13.4-37.12
				c0.45-2.05,0.89-4.09,1.32-6.14c2.32-10.79,3.41-21.71,3.33-32.6C331.61,200,330.21,216.39,326.02,232.27"/>
			<path style="clip-path:url(#SVGID_00000143600299388813318580000016211180029814765713_);fill:#544F4A;" d="M156.81,337.21
				c-2.63-0.34-5.26-0.75-7.89-1.23c-2.63-0.48-5.26-1.02-7.88-1.63c-1.75-0.4-3.5-0.85-5.24-1.32c4.29,0.97,8.56,1.77,12.85,2.42
				c0.7,0.16,1.39,0.33,2.08,0.49C152.76,336.4,154.79,336.82,156.81,337.21"/>
			<g style="opacity:0.6;clip-path:url(#SVGID_00000143600299388813318580000016211180029814765713_);">
				<g>
					<defs>
						<rect id="SVGID_00000111192500842091755720000010661504520113517194_" y="0" width="345.33" height="347.89"/>
					</defs>
					<clipPath id="SVGID_00000003073536949263721470000000263846683722438020_">
						<use xlink:href="#SVGID_00000111192500842091755720000010661504520113517194_"  style="overflow:visible;"/>
					</clipPath>
					<g style="clip-path:url(#SVGID_00000003073536949263721470000000263846683722438020_);">
						<defs>
							<rect id="SVGID_00000002371020147769759760000012005169803189521065_" width="345.33" height="347.89"/>
						</defs>
						<clipPath id="SVGID_00000063609907720737568100000007876901230391351207_">
							<use xlink:href="#SVGID_00000002371020147769759760000012005169803189521065_"  style="overflow:visible;"/>
						</clipPath>
						<path style="clip-path:url(#SVGID_00000063609907720737568100000007876901230391351207_);" d="M65,274.62
							c0.01,0.01,0.02,0.02,0.04,0.04c0-0.01-0.01-0.02-0.02-0.04H65z"/>
						<path style="clip-path:url(#SVGID_00000063609907720737568100000007876901230391351207_);" d="M345.22,177.61
							c2.85-75.27-45.93-146.5-122.36-169.91C205.83,2.48,188.61,0,171.68,0C98.18,0,30.22,46.81,7.72,119.6
							c-4.43,14.32-6.82,28.8-7.36,43.13c-0.09,2.03-0.16,4.05-0.23,6.09c-0.01,0.06-0.01,0.13-0.01,0.19
							c-2.84,75.29,45.71,146.47,122.13,169.9c1.61,0.48,3.22,0.97,4.83,1.4h0c0.68,0.19,1.35,0.37,2.02,0.54
							c-0.63-0.16-1.27-0.33-1.9-0.5c16.18,5.07,32.69,7.54,49,7.54c35.15,0,69.27-11.44,96.71-32.65
							c29.76-20.85,52.61-51.17,64.77-88.03c4.4-13.34,6-28,6.63-36.36c0,0,0-0.03,0-0.08c0.05-0.61,0.09-1.18,0.12-1.73
							c0.18-2.46,0.59-6.57,0.62-7.02C345.09,181.62,345.14,179.57,345.22,177.61 M341.75,180.57c-0.74,13.05-3.06,26.22-7.08,39.24
							c-3.49,11.27-8.09,21.91-13.63,31.84c-0.1,0.27-0.22,0.53-0.32,0.79c0.1-0.26,0.2-0.52,0.31-0.77c0-0.01,0-0.01,0.01-0.02
							c3.45-8.51,6.1-17.2,7.96-25.99c0.09-0.43,0.18-0.86,0.27-1.28c0.34-1.66,0.77-3.29,1.04-4.96
							c7.36-46.08-5.07-89.89-5.07-89.89c-7.43-31.57-25.95-61.55-46.61-82.58C319.01,79.36,342.71,128.82,341.75,180.57
							 M323.59,243.77c0.15-0.47,0.3-0.94,0.45-1.4c0.04-0.11,0.07-0.22,0.1-0.34c0.01-0.04,0.02-0.07,0.04-0.1
							c-0.05,0.15-0.09,0.3-0.14,0.44C323.9,242.83,323.75,243.3,323.59,243.77 M329.34,223.76c0-0.01,0-0.03,0-0.04
							c0.19-0.84,0.37-1.68,0.54-2.52c-0.07,0.39-0.14,0.78-0.21,1.17c-0.1,0.45-0.22,0.91-0.32,1.36L329.34,223.76z M165.64,5.22
							c5.45-0.74,10.88-1.1,16.27-1.1c27.02,0,53.07,9.02,75.48,24.76c-10.79-6.09-22.41-11.13-34.76-14.91
							c-17.02-5.21-34.24-7.69-51.16-7.69c-5.3,0-10.57,0.24-15.8,0.72C158.93,6.28,162.26,5.68,165.64,5.22 M196.91,8.38
							c-1.42-0.18-2.85-0.33-4.28-0.46c1.39,0.12,2.79,0.26,4.18,0.44C196.85,8.36,196.88,8.37,196.91,8.38 M155.59,7.01
							c0.02,0,0.04,0,0.06,0C155.62,7.01,155.61,7.01,155.59,7.01L155.59,7.01z M0.28,165.62c-0.02,0.4-0.04,0.79-0.06,1.19
							C0.24,166.42,0.26,166.03,0.28,165.62c0.77-13.22,3.13-26.55,7.21-39.74C12.05,111.13,18.47,97.45,26.44,85
							c-6.51,10.95-11.83,22.83-15.75,35.5v0c-2.17,7.03-3.85,14.1-5.05,21.18c-1.2,7.08-1.92,14.15-2.18,21.18
							c0,0.32-0.02,0.65-0.03,0.97c-0.02,0.73-0.05,1.45-0.09,2.17c-0.03,0.82-0.07,1.64-0.09,2.47c0,0.01,0,0.02,0,0.02v0.01
							l-0.01,0.01v0.11v0.01l-0.02,0.48v0.01c-1.05,27.82,5.04,55.07,17.05,79.47C6.79,223.37-0.32,194.85,0.28,165.62
							 M90.02,321.92c1.47,0.82,2.96,1.61,4.46,2.39C92.98,323.54,91.49,322.74,90.02,321.92 M281.35,298.89
							c-0.07,0.06-0.13,0.12-0.2,0.18c0.75-0.6,1.48-1.22,2.21-1.83c-0.77,0.65-1.54,1.3-2.32,1.93c0,0-0.01,0.01-0.02,0.02h0h-0.01
							v0.01c-0.01,0-0.01,0-0.02,0.01l-0.02,0.02c0,0-0.01,0.01-0.01,0.01c0,0,0,0-0.01,0.01c-12.78,10.37-27.04,18.83-42.26,25.12
							c-0.03,0.01-0.06,0.02-0.08,0.04c-0.03,0-0.05,0.02-0.08,0.03c-16.42,6.18-33.96,9.35-51.76,9.35
							c-29.62,0-59.93-8.76-86.86-27.04c-4-2.7-7.82-5.56-11.48-8.55c-8.11-5.31-15.55-11.34-22.27-17.99
							c-1.69-1.66-3.33-3.36-4.92-5.08c-0.79-0.87-1.59-1.75-2.34-2.63c-0.5-0.54-0.97-1.1-1.43-1.65c-0.45-0.52-0.9-1.05-1.34-1.59
							c-0.58-0.71-1.15-1.41-1.72-2.12c-0.03-0.04-0.07-0.1-0.1-0.14c-0.7-0.88-1.39-1.77-2.06-2.67c-0.62-0.81-1.23-1.64-1.82-2.47
							c-0.18-0.23-0.34-0.46-0.49-0.69c-0.61-0.85-1.19-1.68-1.77-2.52c11.78,20.98,28.53,39.71,49.8,54.13
							c15.99,10.85,33.16,18.34,50.67,22.65c0.02,0.01,0.03,0.01,0.05,0.01c0.67,0.16,1.35,0.33,2.03,0.48
							c2.02,0.47,4.05,0.89,6.08,1.27c-2.63-0.34-5.26-0.75-7.89-1.23c-2.63-0.48-5.26-1.03-7.88-1.64c-1.75-0.4-3.5-0.85-5.24-1.31
							c-4.14-0.95-8.29-2.05-12.42-3.31c-1.25-0.38-2.5-0.78-3.73-1.19c-0.01,0-0.02-0.01-0.03-0.01
							c-27.99-9.27-52.03-25.15-70.87-45.3c-9.09-9.74-16.98-20.46-23.5-31.94C10.6,225.52,2.77,196.04,3.37,165.8v-0.01
							c0.77-12.98,3.08-26.06,7.08-39.02C28.92,66.99,78.6,25.07,136.59,12.94h0.01c1.09-0.23,3.3-0.66,3.31-0.67
							c6.09-1.14,12.27-1.97,18.52-2.44c0.01-0.01,0.03-0.01,0.04-0.01c1.84-0.14,3.7-0.25,5.55-0.33c0.09,0,0.15-0.01,0.16-0.01
							c-0.02,0.01-0.07,0.01-0.15,0.01c0.36,0,7.38,0.01,12.53,0.46c53.87,4.83,90.75,24.32,117.25,64.8
							c2.78,4.24,17.35,25.54,25.68,51.91c5.38,17.02,7.15,41.09,8.08,51.64c1.63,18.54,0.32,37.29-4.35,55.39
							c-0.38,1.48-0.79,2.96-1.23,4.44c0.43-1.49,0.84-2.96,1.23-4.44c-2.49,7.71-5.62,15.32-9.43,22.72
							C305.35,272.9,294.3,287.12,281.35,298.89 M327.17,218.64c-0.06,0.33-0.12,0.67-0.19,1.01c-0.13,0.63-0.25,1.26-0.39,1.89
							C326.79,220.58,326.98,219.61,327.17,218.64 M326.49,221.98c0,0.03-0.01,0.06-0.02,0.1c-0.08,0.34-0.16,0.68-0.25,1.02
							C326.32,222.73,326.4,222.36,326.49,221.98 M322.66,236.21c-0.06,0.18-0.1,0.34-0.16,0.51c-0.14,0.41-0.26,0.83-0.4,1.25
							c-0.06,0.16-0.1,0.33-0.16,0.5c-0.03,0.1-0.06,0.2-0.09,0.3c-0.04,0.12-0.08,0.24-0.12,0.36l0.21-0.66
							c0.05-0.17,0.1-0.33,0.16-0.5C322.3,237.36,322.49,236.78,322.66,236.21 M321.09,241.16c0,0.01,0,0.02,0,0.03v-0.02
							C321.09,241.17,321.09,241.17,321.09,241.16 M321.07,241.25c0,0.01,0,0.02-0.01,0.04c-0.4,1.25-0.81,2.49-1.25,3.72
							c0.44-1.23,0.85-2.48,1.25-3.72C321.06,241.28,321.06,241.26,321.07,241.25 M313,264.57v0.01c-2.18,3.17-4.47,6.24-6.84,9.23
							c2.24-3.59,4.36-7.31,6.32-11.15c6.26-12.17,10.7-24.85,13.44-37.73c0-0.01,0-0.02,0.01-0.03c0.44-2.07,0.88-4.13,1.31-6.21
							c2.34-10.97,3.42-22.08,3.33-33.16c1.23,16.53-0.17,33.2-4.37,49.34c0.12-0.39,0.25-0.78,0.37-1.18
							c0.12-0.39,0.24-0.79,0.36-1.18l-0.08,0.26c-0.09,0.3-0.18,0.61-0.28,0.91c-0.12,0.39-0.24,0.78-0.37,1.17
							c-0.04,0.16-0.08,0.32-0.13,0.48c0.04-0.16,0.08-0.32,0.12-0.47c-2.53,7.82-5.72,15.54-9.58,23.06
							C315.47,260.18,314.26,262.4,313,264.57 M337.89,221.19c-3.41,15.41-11.2,27.86-19.08,40.19
							c6.45-10.89,11.73-22.7,15.62-35.29c4.33-14.07,6.7-28.28,7.22-42.36c0.03-0.52,0.05-1.05,0.06-1.58
							c0.06-1.47,0.12-2.96,0.17-4.43c0.01-0.08,0.01-0.17,0.01-0.25c1.05-27.66-4.97-54.78-16.85-79.06
							c-0.09-0.17-0.18-0.33-0.27-0.5c0.09,0.17,0.19,0.33,0.27,0.5c13.03,24.61,19.99,52.3,19.73,80.7
							c-0.04,0.91-0.2,5.98-0.62,8.97l-2.11,15.11C341.87,204.54,337.91,221.11,337.89,221.19"/>
					</g>
				</g>
			</g>
		</g>
		<g>
			<path d="M111.89,203.99c3.1-3.19,4.66-7.4,4.66-12.63v-28.57c0-5.31-1.55-9.56-4.66-12.75c-3.11-3.18-7.24-4.78-12.38-4.78
				c-5.07,0-9.15,1.59-12.26,4.78c-3.11,3.19-4.66,7.44-4.66,12.75v28.57c0,5.23,1.55,9.44,4.66,12.63
				c3.1,3.18,7.19,4.78,12.26,4.78C104.66,208.77,108.78,207.17,111.89,203.99 M83.2,217.29c-4.74-2.49-8.4-6.03-10.97-10.6
				c-2.58-4.58-3.86-9.85-3.86-15.82v-27.95c0-5.89,1.31-11.1,3.92-15.63c2.62-4.54,6.27-8.05,10.97-10.54
				c4.7-2.49,10.12-3.74,16.25-3.74c6.21,0,11.67,1.25,16.37,3.74c4.7,2.5,8.35,6.01,10.97,10.54c2.61,4.54,3.92,9.75,3.92,15.63
				v27.95c0,5.97-1.31,11.24-3.92,15.82c-2.62,4.58-6.27,8.11-10.97,10.6c-4.7,2.5-10.16,3.74-16.37,3.74
				C93.38,221.03,87.94,219.78,83.2,217.29"/>
			<path d="M196.91,134.41c0.28-0.28,0.63-0.43,1.04-0.43h11.28c0.4,0,0.75,0.14,1.04,0.43c0.28,0.29,0.43,0.63,0.43,1.04v82.88
				c0,0.41-0.14,0.76-0.43,1.05c-0.29,0.28-0.64,0.43-1.04,0.43h-10.91c-0.82,0-1.39-0.33-1.72-0.98l-35.31-57.87
				c-0.16-0.24-0.33-0.34-0.49-0.3c-0.17,0.04-0.25,0.22-0.25,0.55l0.25,57.13c0,0.41-0.14,0.76-0.43,1.05
				c-0.28,0.28-0.63,0.43-1.04,0.43h-11.28c-0.41,0-0.76-0.14-1.04-0.43c-0.29-0.29-0.43-0.63-0.43-1.05v-82.88
				c0-0.41,0.14-0.75,0.43-1.04c0.28-0.28,0.63-0.43,1.04-0.43h10.91c0.81,0,1.39,0.33,1.71,0.98l35.19,57.87
				c0.16,0.24,0.32,0.35,0.49,0.31c0.16-0.04,0.24-0.22,0.24-0.55l-0.12-57.13C196.49,135.04,196.63,134.7,196.91,134.41"/>
			<path d="M285.19,145.81c-0.29,0.29-0.63,0.43-1.04,0.43h-41.81c-0.41,0-0.61,0.2-0.61,0.61v22.93c0,0.41,0.2,0.61,0.61,0.61
				h28.08c0.41,0,0.76,0.14,1.05,0.43c0.28,0.29,0.43,0.63,0.43,1.04v9.32c0,0.41-0.14,0.76-0.43,1.04
				c-0.29,0.29-0.64,0.43-1.05,0.43h-28.08c-0.41,0-0.61,0.2-0.61,0.61v23.66c0,0.41,0.2,0.61,0.61,0.61h41.81
				c0.41,0,0.75,0.14,1.04,0.43c0.28,0.28,0.43,0.63,0.43,1.04v9.31c0,0.41-0.14,0.76-0.43,1.05c-0.29,0.28-0.63,0.43-1.04,0.43
				h-55.17c-0.41,0-0.76-0.14-1.04-0.43c-0.29-0.29-0.43-0.63-0.43-1.05v-82.88c0-0.41,0.14-0.75,0.43-1.04
				c0.28-0.28,0.63-0.43,1.04-0.43h55.17c0.41,0,0.75,0.14,1.04,0.43c0.28,0.29,0.43,0.63,0.43,1.04v9.32
				C285.62,145.18,285.47,145.53,285.19,145.81"/>
		</g>
	</g>
	<rect x="372.8" y="238.37" class="st28" width="399.7" height="29.74"/>
	<text transform="matrix(1 0 0 1 372.8042 267.7723)" class="st29 st30 st31">for digital estates</text>
</g>
</svg>
