<svg id="Layer_1" data-name="Layer 1" xmlns="http://www.w3.org/2000/svg" xmlns:xlink="http://www.w3.org/1999/xlink" viewBox="0 0 769.2 359.35"><defs><style>.cls-1{fill:none;}.cls-2{fill:#fff;}.cls-3{clip-path:url(#clip-path);}.cls-4{opacity:0.4;}.cls-5{clip-path:url(#clip-path-2);}.cls-6{clip-path:url(#clip-path-3);}.cls-7{clip-path:url(#clip-path-4);}.cls-8{clip-path:url(#clip-path-5);}.cls-9{opacity:0.8;}.cls-10{clip-path:url(#clip-path-6);}.cls-11{clip-path:url(#clip-path-7);}.cls-12{fill:#788082;}.cls-13{fill:#abb0b5;}.cls-14{opacity:0.6;}.cls-15{clip-path:url(#clip-path-9);}</style><clipPath id="clip-path" transform="translate(0 0)"><rect class="cls-1" width="356.72" height="359.36"/></clipPath><clipPath id="clip-path-2" transform="translate(0 0)"><rect class="cls-1" x="45.22" y="6.49" width="295.25" height="319.32"/></clipPath><clipPath id="clip-path-3" transform="translate(0 0)"><rect class="cls-1" x="45.22" y="6.48" width="295.25" height="319.32"/></clipPath><clipPath id="clip-path-4" transform="translate(0 0)"><rect class="cls-1" x="104.83" y="10.05" width="230.88" height="169.09"/></clipPath><clipPath id="clip-path-5" transform="translate(0 0)"><rect class="cls-1" x="104.83" y="10.05" width="230.88" height="169.09"/></clipPath><clipPath id="clip-path-6" transform="translate(0 0)"><rect class="cls-1" x="24.87" y="36.74" width="293.8" height="288.97"/></clipPath><clipPath id="clip-path-7" transform="translate(0 0)"><rect class="cls-1" x="24.87" y="36.74" width="293.8" height="288.97"/></clipPath><clipPath id="clip-path-9" transform="translate(0 0)"><rect class="cls-1" width="356.72" height="359.36"/></clipPath></defs><path class="cls-2" d="M397.79,145.27a15.11,15.11,0,0,1,7.74-1.86,19,19,0,0,1,5.14.63,24.18,24.18,0,0,1,4.6,1.87,2.76,2.76,0,0,0,3.1-.5,2.49,2.49,0,0,0,.73-1.76,2.67,2.67,0,0,0-1.44-2.48,28.8,28.8,0,0,0-5.88-2.54,23.73,23.73,0,0,0-6.75-.89,20.53,20.53,0,0,0-10,2.42,17.62,17.62,0,0,0-7,7,23.35,23.35,0,0,0,0,21.18,17.49,17.49,0,0,0,7,7,20.47,20.47,0,0,0,10,2.42,23.73,23.73,0,0,0,6.75-.89,28.26,28.26,0,0,0,5.88-2.54,2.65,2.65,0,0,0,1.44-2.47,2.45,2.45,0,0,0-.74-1.8,2.58,2.58,0,0,0-1.91-.74,2.66,2.66,0,0,0-1.19.27,24.1,24.1,0,0,1-4.59,1.87,18.86,18.86,0,0,1-5.14.64,15.09,15.09,0,0,1-7.74-1.87,12,12,0,0,1-4.76-5.08,17.72,17.72,0,0,1,0-14.76,12.07,12.07,0,0,1,4.76-5.08" transform="translate(0 0)"/><path class="cls-2" d="M432.52,176.61a2.75,2.75,0,0,0,.88-2.07v-16.4a10.63,10.63,0,0,1,3.41-3.24,8.86,8.86,0,0,1,4.55-1.22h.27a3,3,0,0,0,2.12-.77,2.66,2.66,0,0,0,.86-2,2.91,2.91,0,0,0-.82-2.07,2.75,2.75,0,0,0-2.05-.85h-.27c-2.94,0-5.66,1.43-8.07,4.25v-1a2.88,2.88,0,0,0-.87-2.1,2.91,2.91,0,0,0-2.1-.86,2.78,2.78,0,0,0-2.07.87,2.91,2.91,0,0,0-.84,2.09v23.34a2.87,2.87,0,0,0,2.91,2.91,2.89,2.89,0,0,0,2.09-.84" transform="translate(0 0)"/><path class="cls-2" d="M455.08,160.09a8.17,8.17,0,0,1,1.25-3.73,6.85,6.85,0,0,1,2.8-2.48,7.93,7.93,0,0,1,6.89,0,7.19,7.19,0,0,1,2.83,2.48,8,8,0,0,1,1.26,3.73Zm8.58,17.63a20.56,20.56,0,0,0,5.46-.61,20.92,20.92,0,0,0,4.29-1.84,2.8,2.8,0,0,0,1.65-2.42,2.45,2.45,0,0,0-.8-1.87,2.64,2.64,0,0,0-1.85-.72,2.56,2.56,0,0,0-1.18.27,16.19,16.19,0,0,1-3.25,1.21,15.92,15.92,0,0,1-3.88.43,9.33,9.33,0,0,1-6.38-2,8.32,8.32,0,0,1-2.61-5.11H473a2.86,2.86,0,0,0,3-2.91,15.83,15.83,0,0,0-1.58-7,12.62,12.62,0,0,0-4.62-5.2,13.24,13.24,0,0,0-7.22-1.95,13,13,0,0,0-7.49,2.1,12.61,12.61,0,0,0-4.52,5.47,18.31,18.31,0,0,0-1.45,7.31c0,4.68,1.3,8.36,3.86,11s6.16,3.91,10.69,3.91" transform="translate(0 0)"/><path class="cls-2" d="M490.1,171.36a3.56,3.56,0,0,1-1.17-2.81c0-2.54,2.6-3.82,7.74-3.82h5.46v3.92a12.58,12.58,0,0,1-3.5,2.67,9.41,9.41,0,0,1-4.41,1.12,6.23,6.23,0,0,1-4.12-1.08m12,2.85v.32a2.88,2.88,0,0,0,.84,2.08,2.84,2.84,0,0,0,2.08.84,2.91,2.91,0,0,0,2.09-.84,2.79,2.79,0,0,0,.88-2.08V159.15a11.93,11.93,0,0,0-1.28-5.46,10,10,0,0,0-4-4.14,12.84,12.84,0,0,0-6.57-1.59,24.36,24.36,0,0,0-9.59,2,2.57,2.57,0,0,0-1.7,2.5,2.47,2.47,0,0,0,.74,1.8,2.4,2.4,0,0,0,1.74.73,3.58,3.58,0,0,0,.86-.13,31.71,31.71,0,0,1,3.5-1,18.29,18.29,0,0,1,3.58-.31c2.37,0,4.13.49,5.21,1.45s1.61,2.56,1.61,4.79H496c-4.18,0-7.41.84-9.61,2.49A8.1,8.1,0,0,0,483,169.1a8.2,8.2,0,0,0,4.7,7.6,10.63,10.63,0,0,0,4.63,1,14.24,14.24,0,0,0,9.76-3.51" transform="translate(0 0)"/><path class="cls-2" d="M532.78,176.69a2.53,2.53,0,0,0,1.5-2.32,2.31,2.31,0,0,0-.74-1.72,2.35,2.35,0,0,0-1.68-.7,3.77,3.77,0,0,0-.73.06l-.5.12a7.16,7.16,0,0,1-2,.31,4.63,4.63,0,0,1-2.3-.51c-.5-.29-.76-1.06-.76-2.29v-16h5.67a2.45,2.45,0,0,0,1.86-.76,2.57,2.57,0,0,0-1.86-4.41h-5.67v-3.89a1.54,1.54,0,0,0-2.76-.93l-7.35,7.2a1.6,1.6,0,0,0-.67,1.29,1.46,1.46,0,0,0,.43,1.07,1.5,1.5,0,0,0,1.07.43h3.39v16.4c0,5.07,2.83,7.64,8.41,7.64a11.16,11.16,0,0,0,4.73-1" transform="translate(0 0)"/><path class="cls-2" d="M582.9,151.21a2.93,2.93,0,0,0-.84-2.1,2.79,2.79,0,0,0-2.07-.88,2.89,2.89,0,0,0-1.59.49,2.79,2.79,0,0,0-1.08,1.23l-7.88,20-7.9-20a3,3,0,0,0-2.65-1.69,2.79,2.79,0,0,0-2.08.88,2.91,2.91,0,0,0-.84,2.1,3.43,3.43,0,0,0,.31,1.32l9.46,22.63a4,4,0,0,0,1.36,1.64h0a3.58,3.58,0,0,0,2.07.65h.54a3.55,3.55,0,0,0,2.06-.65,4,4,0,0,0,1.36-1.65l9.46-22.62a3.43,3.43,0,0,0,.31-1.32" transform="translate(0 0)"/><path class="cls-2" d="M594.85,160.09a8.16,8.16,0,0,1,1.24-3.73,7,7,0,0,1,2.8-2.48,7.9,7.9,0,0,1,6.89,0,7.05,7.05,0,0,1,2.83,2.48,8,8,0,0,1,1.27,3.73Zm20,12.76A2.45,2.45,0,0,0,614,171a2.73,2.73,0,0,0-3-.45,15.61,15.61,0,0,1-3.25,1.21,15.83,15.83,0,0,1-3.88.42,9.35,9.35,0,0,1-6.38-2,8.31,8.31,0,0,1-2.6-5.11h17.9a2.84,2.84,0,0,0,3-2.91,16,16,0,0,0-1.57-7,12.65,12.65,0,0,0-4.63-5.2,13.18,13.18,0,0,0-7.21-1.95,13,13,0,0,0-7.5,2.1,12.66,12.66,0,0,0-4.51,5.47,18.14,18.14,0,0,0-1.46,7.31c0,4.68,1.3,8.37,3.86,11s6.16,3.92,10.7,3.92a20.48,20.48,0,0,0,5.45-.61,20.76,20.76,0,0,0,4.3-1.84,2.8,2.8,0,0,0,1.64-2.42" transform="translate(0 0)"/><path class="cls-2" d="M406.3,208.28h-15a8.17,8.17,0,0,1,1.25-3.73,6.85,6.85,0,0,1,2.8-2.48,7.86,7.86,0,0,1,6.89,0,7.12,7.12,0,0,1,2.83,2.48,8,8,0,0,1,1.26,3.73M406,198.1a13.24,13.24,0,0,0-7.22-1.95,13,13,0,0,0-7.49,2.09,12.58,12.58,0,0,0-4.52,5.48A18.31,18.31,0,0,0,385.3,211c0,4.67,1.3,8.36,3.86,11s6.16,3.92,10.69,3.92a20.11,20.11,0,0,0,5.46-.62,19.67,19.67,0,0,0,4.29-1.84,2.78,2.78,0,0,0,1.65-2.42,2.44,2.44,0,0,0-.8-1.86,2.65,2.65,0,0,0-1.84-.72,2.7,2.7,0,0,0-1.19.26,16.23,16.23,0,0,1-3.25,1.22,15.89,15.89,0,0,1-3.88.42,9.33,9.33,0,0,1-6.38-2,8.32,8.32,0,0,1-2.61-5.11h17.9a2.84,2.84,0,0,0,3-2.92,16,16,0,0,0-1.56-7A12.75,12.75,0,0,0,406,198.1" transform="translate(0 0)"/><path class="cls-2" d="M442,197.64a9.89,9.89,0,0,0-5.45-1.49,11.81,11.81,0,0,0-5.89,1.42,18.28,18.28,0,0,0-3.76,2.88v-1.06a3,3,0,0,0-3-3,2.76,2.76,0,0,0-2.07.88,2.91,2.91,0,0,0-.84,2.09v23.33a2.89,2.89,0,0,0,2.91,2.92,2.93,2.93,0,0,0,2.09-.84,2.76,2.76,0,0,0,.88-2.08V206.57a17.24,17.24,0,0,1,3.84-3.58,8.22,8.22,0,0,1,4.61-1.34c3.71,0,5.52,2,5.52,6.17v14.9a2.8,2.8,0,0,0,.84,2.07,2.84,2.84,0,0,0,2.07.85,2.93,2.93,0,0,0,2.09-.84,2.76,2.76,0,0,0,.88-2.08V207.28a13,13,0,0,0-1.21-5.59,9.81,9.81,0,0,0-3.54-4.05" transform="translate(0 0)"/><path class="cls-2" d="M478.06,196.42a2.85,2.85,0,0,0-1.59.48,2.9,2.9,0,0,0-1.08,1.23l-7.89,20-7.89-20a3,3,0,0,0-2.66-1.69,2.79,2.79,0,0,0-2.07.88,2.91,2.91,0,0,0-.84,2.09,3.35,3.35,0,0,0,.31,1.32l9.46,22.63a3.85,3.85,0,0,0,1.36,1.64h0a3.49,3.49,0,0,0,2.06.66h.55a3.51,3.51,0,0,0,2.06-.66,3.92,3.92,0,0,0,1.36-1.64l9.46-22.63a3.43,3.43,0,0,0,.31-1.32,2.91,2.91,0,0,0-.84-2.09,2.79,2.79,0,0,0-2.07-.88" transform="translate(0 0)"/><path class="cls-2" d="M492.14,185.27h-.33a3.26,3.26,0,0,0-3.24,3.24v.22a3.13,3.13,0,0,0,.95,2.29h0a3.17,3.17,0,0,0,2.29.95h.33a3.24,3.24,0,0,0,3.24-3.24v-.22a3.26,3.26,0,0,0-3.24-3.24" transform="translate(0 0)"/><path class="cls-2" d="M491.92,196.42a2.77,2.77,0,0,0-2.07.88,2.91,2.91,0,0,0-.84,2.09v23.33a2.89,2.89,0,0,0,2.91,2.92,3,3,0,0,0,2.1-.84,2.79,2.79,0,0,0,.87-2.08V199.39a2.87,2.87,0,0,0-3-3" transform="translate(0 0)"/><path class="cls-2" d="M520,196.15h-.27c-2.95,0-5.66,1.43-8.07,4.24v-1a2.89,2.89,0,0,0-.88-2.1,2.86,2.86,0,0,0-2.09-.87,2.79,2.79,0,0,0-2.08.88,2.91,2.91,0,0,0-.84,2.09v23.33a2.9,2.9,0,0,0,2.92,2.92,3,3,0,0,0,2.09-.84,2.79,2.79,0,0,0,.88-2.08V206.33a10.56,10.56,0,0,1,3.41-3.25,8.9,8.9,0,0,1,4.55-1.21h.27a3,3,0,0,0,2.11-.78,2.64,2.64,0,0,0,.86-2,2.86,2.86,0,0,0-.81-2.06,2.76,2.76,0,0,0-2.05-.85" transform="translate(0 0)"/><path class="cls-2" d="M550.3,211a10.5,10.5,0,0,1-1.27,5.42,8,8,0,0,1-3.18,3.09,9,9,0,0,1-8.17,0,7.78,7.78,0,0,1-3.15-3.09,10.56,10.56,0,0,1-1.24-5.42,10.45,10.45,0,0,1,1.24-5.36,7.53,7.53,0,0,1,3.14-3.05,9.2,9.2,0,0,1,4.12-1,9,9,0,0,1,4.06,1,7.67,7.67,0,0,1,3.18,3.05A10.37,10.37,0,0,1,550.3,211m-1-13a16.31,16.31,0,0,0-15.09,0,12.79,12.79,0,0,0-5.05,5.28,17.85,17.85,0,0,0,0,15.5,12.65,12.65,0,0,0,5.05,5.27,16.23,16.23,0,0,0,15.09,0,12.9,12.9,0,0,0,5.08-5.27,17.67,17.67,0,0,0,0-15.5,12.93,12.93,0,0,0-5.08-5.28" transform="translate(0 0)"/><path class="cls-2" d="M586.39,197.64a9.86,9.86,0,0,0-5.44-1.49,11.81,11.81,0,0,0-5.89,1.42,18.28,18.28,0,0,0-3.76,2.88v-1.06a3,3,0,0,0-3-3,2.79,2.79,0,0,0-2.08.88,3,3,0,0,0-.84,2.09v23.33a2.9,2.9,0,0,0,2.92,2.92,2.93,2.93,0,0,0,2.09-.84,2.76,2.76,0,0,0,.88-2.08V206.57a17.26,17.26,0,0,1,3.84-3.58,8.22,8.22,0,0,1,4.61-1.34c3.71,0,5.52,2,5.52,6.17v14.9a2.8,2.8,0,0,0,.84,2.07,2.84,2.84,0,0,0,2.07.85,2.93,2.93,0,0,0,2.09-.84,2.76,2.76,0,0,0,.88-2.08V207.28a13,13,0,0,0-1.21-5.59,9.77,9.77,0,0,0-3.55-4.05" transform="translate(0 0)"/><path class="cls-2" d="M640.15,197.77a8.69,8.69,0,0,0-5.36-1.62,11.38,11.38,0,0,0-9.94,5.09,9.83,9.83,0,0,0-2.89-3.37,9,9,0,0,0-5.5-1.72,10.44,10.44,0,0,0-5.83,1.49,14.06,14.06,0,0,0-3,2.61v-.86a3,3,0,0,0-3-3,2.79,2.79,0,0,0-2.07.88,2.89,2.89,0,0,0-.84,2.09v23.33a2.89,2.89,0,0,0,2.91,2.92,3,3,0,0,0,2.1-.84,2.79,2.79,0,0,0,.87-2.08V206.54a13.64,13.64,0,0,1,3.06-3.55,6.78,6.78,0,0,1,4.31-1.34c1.86,0,3.18.5,3.92,1.48a8.25,8.25,0,0,1,1.16,4.91v14.68a2.8,2.8,0,0,0,.84,2.07,2.84,2.84,0,0,0,2.07.85,2.93,2.93,0,0,0,2.09-.84,2.76,2.76,0,0,0,.88-2.08V206.54a13.27,13.27,0,0,1,3.06-3.55,6.73,6.73,0,0,1,4.3-1.34c1.87,0,3.19.5,3.93,1.48a8.34,8.34,0,0,1,1.15,4.91v14.68a2.9,2.9,0,0,0,2.92,2.92,3,3,0,0,0,2.09-.84,2.79,2.79,0,0,0,.88-2.08V207.06a13.48,13.48,0,0,0-1-5.18,9.47,9.47,0,0,0-3.17-4.11" transform="translate(0 0)"/><path class="cls-2" d="M674.31,208.28h-15a8.16,8.16,0,0,1,1.24-3.73,6.91,6.91,0,0,1,2.8-2.48,7.86,7.86,0,0,1,6.89,0,7,7,0,0,1,2.83,2.48,8.06,8.06,0,0,1,1.27,3.73M674,198.1a13.2,13.2,0,0,0-7.21-1.95,13,13,0,0,0-7.5,2.09,12.58,12.58,0,0,0-4.52,5.48A18.31,18.31,0,0,0,653.3,211c0,4.67,1.3,8.36,3.86,11s6.16,3.92,10.69,3.92a20.11,20.11,0,0,0,5.46-.62,19.46,19.46,0,0,0,4.29-1.84,2.78,2.78,0,0,0,1.65-2.42,2.44,2.44,0,0,0-.8-1.86,2.63,2.63,0,0,0-1.84-.72,2.73,2.73,0,0,0-1.19.26,14.71,14.71,0,0,1-7.13,1.64,9.35,9.35,0,0,1-6.38-2,8.31,8.31,0,0,1-2.6-5.11h17.9a2.84,2.84,0,0,0,3-2.92,16,16,0,0,0-1.57-7A12.68,12.68,0,0,0,674,198.1" transform="translate(0 0)"/><path class="cls-2" d="M710,197.64a9.89,9.89,0,0,0-5.45-1.49,11.86,11.86,0,0,0-5.89,1.42,18.28,18.28,0,0,0-3.76,2.88v-1.06a3,3,0,0,0-3-3,2.79,2.79,0,0,0-2.07.88,2.91,2.91,0,0,0-.84,2.09v23.33a2.89,2.89,0,0,0,2.91,2.92,3,3,0,0,0,2.1-.84,2.79,2.79,0,0,0,.87-2.08V206.57a17.3,17.3,0,0,1,3.85-3.58,8.2,8.2,0,0,1,4.61-1.34c3.71,0,5.51,2,5.51,6.17v14.9a2.8,2.8,0,0,0,.84,2.07,2.84,2.84,0,0,0,2.08.85,3,3,0,0,0,2.09-.84,2.79,2.79,0,0,0,.88-2.08V207.28a12.82,12.82,0,0,0-1.22-5.59,9.67,9.67,0,0,0-3.54-4.05" transform="translate(0 0)"/><path class="cls-2" d="M738.61,220.13a3.21,3.21,0,0,0-.74.07l-.49.12a7.15,7.15,0,0,1-2,.3,4.63,4.63,0,0,1-2.3-.51c-.5-.29-.76-1.06-.76-2.28v-16H738a2.46,2.46,0,0,0,1.86-.77,2.58,2.58,0,0,0-1.86-4.41h-5.67v-3.88a1.57,1.57,0,0,0-.43-1.08,1.53,1.53,0,0,0-2.33.15l-7.35,7.2a1.59,1.59,0,0,0-.67,1.29,1.47,1.47,0,0,0,.43,1.06,1.45,1.45,0,0,0,1.07.44h3.39v16.39c0,5.07,2.83,7.65,8.41,7.65a11.17,11.17,0,0,0,4.73-1,2.52,2.52,0,0,0,1.5-2.31,2.33,2.33,0,0,0-.74-1.73,2.4,2.4,0,0,0-1.68-.7" transform="translate(0 0)"/><path class="cls-2" d="M767.65,212.57A9.19,9.19,0,0,0,764,210a46.71,46.71,0,0,0-5.29-1.63,21.15,21.15,0,0,1-4.62-1.43,2,2,0,0,1-1.27-2,2.69,2.69,0,0,1,1.45-2.35,8,8,0,0,1,4.34-1,20.59,20.59,0,0,1,6.08,1,3.25,3.25,0,0,0,.83.13,2.5,2.5,0,0,0,1.88-.8,2.61,2.61,0,0,0,.27-3.36,2.42,2.42,0,0,0-1.39-1,23.32,23.32,0,0,0-8-1.39c-3.51,0-6.26.84-8.17,2.51a8.3,8.3,0,0,0-2.9,6.55,6.78,6.78,0,0,0,1.61,4.69,9.9,9.9,0,0,0,3.77,2.6,41.22,41.22,0,0,0,5.35,1.59,27.8,27.8,0,0,1,4.46,1.44c1,.47,1.12,1.07,1.12,1.48,0,.84,0,3.39-5.57,3.39a15.67,15.67,0,0,1-3.8-.42,21,21,0,0,1-3.4-1.16,2.76,2.76,0,0,0-1.17-.26,2.45,2.45,0,0,0-1.87.8,2.63,2.63,0,0,0-.72,1.84,2.55,2.55,0,0,0,1.12,2.18l0,0a20.66,20.66,0,0,0,10.12,2.51c3.43,0,6.14-.81,8-2.39a7.68,7.68,0,0,0,2.91-6.13,7.21,7.21,0,0,0-1.55-4.82" transform="translate(0 0)"/><path class="cls-2" d="M545.14,137.27h-.33a3.26,3.26,0,0,0-3.24,3.24v.22a3.13,3.13,0,0,0,.95,2.29h0a3.17,3.17,0,0,0,2.29.95h.33a3.24,3.24,0,0,0,3.24-3.24v-.22a3.26,3.26,0,0,0-3.24-3.24" transform="translate(0 0)"/><path class="cls-2" d="M544.92,148.42a2.77,2.77,0,0,0-2.07.88,2.91,2.91,0,0,0-.84,2.09v23.33a2.89,2.89,0,0,0,2.91,2.92,3,3,0,0,0,2.1-.84,2.79,2.79,0,0,0,.87-2.08V151.39a2.87,2.87,0,0,0-3-3" transform="translate(0 0)"/><g class="cls-3"><g class="cls-4"><g class="cls-5"><g class="cls-6"><path class="cls-2" d="M103.15,42.8l-1,.47v0h0l1-.44" transform="translate(0 0)"/><path class="cls-2" d="M335.43,177.42a.19.19,0,0,1,0-.07.17.17,0,0,0,0,.07c.1.57.19,1.15.29,1.72-.09-.57-.19-1.14-.28-1.72m0,0a.19.19,0,0,1,0-.07.17.17,0,0,0,0,.07c.1.57.19,1.15.29,1.72-.09-.57-.19-1.14-.28-1.72" transform="translate(0 0)"/><path class="cls-2" d="M340.47,192.52a166,166,0,0,0-4.58-37.41h0v0c-.05-.53-.11-1.05-.18-1.58-.1-1-.21-1.9-.33-2.85s-.25-1.89-.39-2.85c-.09-.62-.19-1.26-.28-1.88-.73-4.71-1.63-9.35-2.69-13.89-7.63-32.8-23.7-61.52-45-83.37-1-1-13.32-12.23-13.34-12.26-.9-.73-6.94-4.94-8.86-6.3C253.76,23.76,246,18.29,233.32,14.36c-17.5-5.41-39-7.87-56.38-7.87q-6.6,0-13.11.49a36.46,36.46,0,0,0-6.22,1,122,122,0,0,0-16.5,5.42h0q-2.46,1-4.84,2.11l-5,2.31-.53.25-.15.06A127.44,127.44,0,0,0,98.89,39h0A138,138,0,0,0,86.51,51.67q-3.45,4-6.62,8.27h0A144.88,144.88,0,0,0,69.75,75.58h0c-.61,1.1-3.52,6.46-4.83,9.29-.09.25-18.25,46.31-19.43,71a149.82,149.82,0,0,0,1.16,29.66c10.69,69.19,65.9,123.84,123.11,138.55,0,0,7,1.47,8.63,1.54,15,.6,26.53-.44,43.53-3.24,5.27-.88,22.86-7.3,22.86-7.3,1-.44,2.18-.87,3.21-1.34.31-.13.6-.28.9-.42l.33-.17c.46-.23.91-.44,1.37-.64l0,0,.12,0c-1.37.58-2.72,1.14-4.1,1.67a140.52,140.52,0,0,0,58.83-68.36q2.63-6.47,4.58-13.06c-1.37,2-6.66,13.23-8.28,16.48L291.38,265c-4.17,8.38-57.15,50.7-92,57.06h0c-4.79.88-12,.86-7.24,0C124.8,319.9,66.34,262.41,54.24,184.15,48.53,147.1,59.76,110.86,74.5,81.48h0c.09-.2.31-.61.31-.61,1.21-2.4,9-16.92,9-16.92,2.93-4.24,11.66-13.64,11.67-13.65h0c.54-.61,6.41-6.75,6.67-7h0v0c.24-.22,4.07-3.84,4.87-4.54.55-.5,1.11-1,1.68-1.46,1.12-1,2.26-1.9,3.43-2.82s2.31-1.83,3.51-2.71h0A121.73,121.73,0,0,1,134.75,20h0c9.74-4.2,19.2-8.28,30.12-9.77l4.42-.45h0c1.28-.06,2.56-.1,3.85-.12s2.53,0,3.8,0c1.07,0,2.12,0,3.2,0,.77,0,1.53,0,2.3.06l1.5,0c1.94.09,3.91.19,5.86.34,1.08.09,2.15.17,3.22.28s2.16.21,3.24.33q3.24.35,6.47.84l3.24.52c.8.14,1.62.28,2.42.44.64.1,1.29.23,1.93.36l2.69.54,2.66.59c1.33.31,2.66.63,4,1,1.63.42,3.26.85,4.9,1.32,1.35.38,2.71.78,4.05,1.19l1.28.41.87.28,0,0h0l2.14.71,1.27.44c.64.21,1.27.43,1.91.67,1,.38,2.11.76,3.15,1.16s1.9.72,2.83,1.1l.58.23,2.79,1.16c27.72,15.3,51.3,40.2,66.7,71.25a175,175,0,0,0-12.47-15.71,175.9,175.9,0,0,1,12.27,22.37c.65,1.44,1.28,2.89,1.91,4.34h0A173,173,0,0,1,320,122.63a.11.11,0,0,1,0,.06c.28.88.55,1.76.81,2.66q2.16,7.34,3.72,15c.57,2.83,1.09,5.69,1.53,8.57,11,71.13-21.41,137-75.31,163.53.41-.19.81-.36,1.22-.53l1.66-.75c20.79-9.59,38.51-24.95,52-44.19-13.59,21.14-32,38.14-53.88,48.79-.82.41-1.63.79-2.46,1.17,1.47-.66,2.92-1.33,4.38-2,.43-.2.85-.39,1.28-.57C301.44,292.91,333,243.1,336.54,185.1h0c.22-3.59.34-7.17.34-10.81,0-.37,0-.74,0-1.11,0-1.75-.05-3.52-.1-5.28l.27,1.24a164.48,164.48,0,0,1,3.43,23.39m-290.57-12c7.67,53.54,33,78.88,34.79,81C51.63,226.1,47.4,181.22,47.4,181.22c-5.39-55.28,20-89.55,21.27-91.65-1.07,1.93-26.54,36.72-18.77,91" transform="translate(0 0)"/></g></g></g><g class="cls-4"><g class="cls-7"><g class="cls-8"><path class="cls-2" d="M144.48,12.72h0q-5.66,1.81-11.08,4.15a128,128,0,0,0-28.56,19.31c2.1-1,4.21-1.87,6.36-2.74h0a122.65,122.65,0,0,1,20.67-12.12l1-.47,4.62-2.15a119.76,119.76,0,0,1,26-8.53,172.52,172.52,0,0,0-19.06,2.55m19.08-2.55h0l1.73-.12ZM327.88,131.8q1.13,2.59,2.19,5.22-1.05-2.62-2.19-5.22m7.55,45.62a.19.19,0,0,1,0-.07.17.17,0,0,0,0,.07c.1.57.19,1.15.29,1.72-.09-.57-.19-1.14-.28-1.72" transform="translate(0 0)"/></g></g></g><g class="cls-9"><g class="cls-10"><g class="cls-11"><path class="cls-2" d="M223.07,314.19h0l1.39-.51-1.39.5" transform="translate(0 0)"/><path class="cls-2" d="M230.19,49.48c-1.11-.48-2.23-.95-3.35-1.41a152.1,152.1,0,0,0-40.67-10.39h0a151,151,0,0,0-16.82-.94,148.54,148.54,0,0,0-82.91,25.1l-1,.71s-12.53,9.63-15.18,12a136.63,136.63,0,0,0-33.91,48,134.66,134.66,0,0,0-9.47,35c-.25,2-.5,3.94-.76,5.9L26,164a136.76,136.76,0,0,0,5.24,58.58h0a143.7,143.7,0,0,0,19.35,39.28,147.72,147.72,0,0,0,41.61,39.85,153,153,0,0,0,82,24,150.32,150.32,0,0,0,48.37-8h0c2.7-.92,5.35-1.92,8-3a146.7,146.7,0,0,0,15.8-7.55c.57-.32,1.17-.65,1.73-1a136.93,136.93,0,0,0,65.14-83.75,132.33,132.33,0,0,0,3.5-17.6,2.08,2.08,0,0,0,0-.23h0c.27-2.06.54-4.13.79-6.15,7.9-60.83-26.49-122.49-87.36-149M26.44,160.8v0a135.93,135.93,0,0,1,19-51.11,144.49,144.49,0,0,0-9.82,23.08c-.62,1.87-2,6-2,6.09a147.71,147.71,0,0,0-7.09,51.34,135.36,135.36,0,0,1-.12-29.37m3.31,28.85a132.79,132.79,0,0,1-.1-28.26v0a131.6,131.6,0,0,1,8.82-31.15h0a132.86,132.86,0,0,1,9.92-19.12,142.71,142.71,0,0,0-9.67,22.73c-.68,2-1.35,4.07-2,6.1a144.77,144.77,0,0,0-7,49.72M223.07,314.19h0l1.39-.5-1.39.5M221,312.93c1.73-.23,3.46-.5,5.17-.79-1.71.29-3.44.56-5.17.79m-20.44,1c-5,.89-15.46,1.89-15.59,1.9h0c-3.31.23-15,.28-17.55.15a148.8,148.8,0,0,1-48.67-10.89,144.56,144.56,0,0,1-78.19-75.4s0-.05,0-.08c-10.62-30-11.91-62.49-2.75-92.83A141.17,141.17,0,0,1,53.5,105.35c1.9-2.87,3.9-5.65,6-8.34,2.22-2.86,4.54-5.64,6.94-8.29,1.55-1.72,3.15-3.4,4.77-5h0a0,0,0,0,0,0,0c1.24-1.14,2.51-2.27,3.79-3.37h0c25.58-21.85,59-34,93.6-34A148.79,148.79,0,0,1,224.8,57.32c60.44,24.64,95.27,84.29,89.11,143.74v0a132.75,132.75,0,0,1-8.82,31.13C286.46,276.53,246.2,305.9,200.57,314M317.12,201.54h0a134.08,134.08,0,0,1-9,31.91,136.32,136.32,0,0,1-19.25,32.37,133,133,0,0,0,24.68-61.44,1,1,0,0,0,0-.16s0,0,0,0c.26-2.06.52-4.13.8-6.19a134.6,134.6,0,0,0-8.26-66.16,138.06,138.06,0,0,1,11,69.7" transform="translate(0 0)"/></g></g></g></g><polygon class="cls-12" points="290.18 305.28 290.18 305.29 290.18 305.28 290.18 305.28"/><g class="cls-3"><path class="cls-2" d="M332.79,130.57h0a169.72,169.72,0,0,0-20-36.34h0a173.5,173.5,0,0,0-12.5-15.38,0,0,0,0,0,0,0A173.91,173.91,0,0,0,172.81,22.39a167.29,167.29,0,0,0-57,10c-1.5.54-10.85,4.38-10.86,4.38-2,.89-6,2.8-6,2.8a155.93,155.93,0,0,0-83.68,107l-.09.41c-.39,1.88-.8,3.74-1.2,5.62l-.07.3h0c-7.55,35-2.71,71.48,12.6,103.69a170.85,170.85,0,0,0,42,55.35,175,175,0,0,0,63,35.12h0a170.35,170.35,0,0,0,50.62,7.7,164.64,164.64,0,0,0,99.7-33.17c-.46.32-.46.31,0,0a154.7,154.7,0,0,0,33.86-35.52,156.29,156.29,0,0,0,9.84-16.37q3.27-6.29,5.92-12.71a156.08,156.08,0,0,0,8.21-26.41l.27-1.31s0,0,0,0q.54-2.49,1.07-5a161.32,161.32,0,0,0-8.22-93.68M14.6,149.87A156,156,0,0,1,52.81,78.92,152.57,152.57,0,0,0,32.28,109h0a152.74,152.74,0,0,0-13.85,38.36c-.08.39-.17.78-.25,1.17-.36,1.72-.74,3.44-1.1,5.14h0a157,157,0,0,0,3,77.27,160.84,160.84,0,0,1-5.51-81.06M290.19,305.28h0a145,145,0,0,1-43.7,25.59h0A153.21,153.21,0,0,1,193,340.44c-30.52,0-62.28-8.95-90.48-26.25-4.21-2.59-30.12-19.87-47.95-44.6-3.27-4.53-6.81-8.85-9.67-13.64A145.68,145.68,0,0,1,30.86,224.5a165.6,165.6,0,0,0,68.92,97.2q6.91,4.6,14.06,8.45-4.44-2-8.82-4.3C38.56,291,4.74,218.51,17.75,150.69h0A152.57,152.57,0,0,1,79.9,60c2.43-1.67,13.35-8.24,15.64-9.45h0a163.18,163.18,0,0,1,75.7-18.64A152.53,152.53,0,0,0,86,62.27l-1.18.9,1.05-.72c24-16.34,52.86-24.72,82.67-25.3,17.35-.33,30.47.88,44,3.92a116.18,116.18,0,0,1,33.27,13.17c7.1,4.16,14,8.72,20.76,13.21,27,18.07,46.65,43.82,58.65,71.27,2,4.62,5.33,13.59,5.39,14.1a157.16,157.16,0,0,1,6.67,29.68h0a149,149,0,0,1-3.61,56.24h0a153,153,0,0,1-43.52,66.53m43.25-65c-.26.84-.58,1.8-.89,2.78.31-1,.62-1.94.89-2.78m1.55,5.83c.2-.64.39-1.28.58-1.92h0c-.19.64-.38,1.28-.58,1.92m5.36-18.92h0c-.11.46-.22.92-.32,1.38.19-.86.37-1.72.55-2.58-.07.4-.15.8-.22,1.19m-3.58,12.71a154.6,154.6,0,0,1-9.87,23.43c-1.2,2.3-2.45,4.55-3.73,6.76h0a155,155,0,0,1-21.31,28.41,152.52,152.52,0,0,0,14.22-19l0,0q3.47-5.49,6.52-11.34a151.72,151.72,0,0,0,13.84-38.35c.46-2.12.92-4.22,1.37-6.34a154.67,154.67,0,0,0,3.43-33.68,151.69,151.69,0,0,1-4.5,50.12" transform="translate(0 0)"/><path class="cls-13" d="M162,348.32c-2.72-.35-5.43-.77-8.15-1.27s-5.43-1.05-8.14-1.69c-1.8-.42-3.61-.87-5.41-1.36,4.43,1,8.84,1.83,13.27,2.5l2.15.5c2.09.49,4.19.92,6.28,1.32" transform="translate(0 0)"/><g class="cls-14"><g class="cls-15"><g class="cls-3"><path class="cls-2" d="M67.14,283.67l0,0s0,0,0,0Z" transform="translate(0 0)"/><path class="cls-2" d="M356.6,183.47C359.54,105.72,309.15,32.14,230.21,8A180.28,180.28,0,0,0,177.34,0C101.42,0,31.22,48.35,8,123.54a172,172,0,0,0-7.6,44.55c-.1,2.1-.17,4.19-.24,6.29a1.5,1.5,0,0,0,0,.2c-2.93,77.77,47.22,151.29,126.16,175.5,1.66.5,3.33,1,5,1.45h0c.7.2,1.4.38,2.09.56l-2-.52A169.14,169.14,0,0,0,182,359.36a163.38,163.38,0,0,0,99.9-33.73c30.74-21.54,54.34-52.85,66.9-90.92,4.55-13.79,6.2-28.92,6.85-37.56v-.08c0-.63.09-1.22.13-1.78.18-2.54.6-6.79.64-7.25s.09-2.55.17-4.57M353,186.52a170.27,170.27,0,0,1-7.3,40.54A172.3,172.3,0,0,1,331.63,260c-.11.28-.23.55-.34.82.11-.27.21-.54.32-.8l0,0a159.48,159.48,0,0,0,8.22-26.84c.1-.45.19-.89.28-1.32.35-1.72.8-3.4,1.08-5.13,7.6-47.6-5.24-92.85-5.24-92.85-7.67-32.61-26.81-63.58-48.15-85.31C329.53,82,354,133.07,353,186.52m-18.76,65.29c.16-.49.32-1,.47-1.45,0-.12.08-.23.11-.35a.49.49,0,0,1,0-.11c-.05.16-.1.31-.14.46-.16.48-.31,1-.48,1.45m5.95-20.67a.43.43,0,0,1,0,0c.19-.87.38-1.73.55-2.61-.07.41-.14.81-.22,1.21l-.33,1.4ZM171.1,5.4a123.82,123.82,0,0,1,16.8-1.14c27.91,0,54.82,9.32,78,25.58A181.06,181.06,0,0,0,177.11,6.49c-5.47,0-10.92.25-16.32.74,3.38-.74,6.82-1.36,10.31-1.83m32.31,3.25c-1.47-.18-2.95-.34-4.43-.47,1.44.13,2.89.27,4.32.45l.11,0m-42.7-1.41h0ZM.29,171.08l-.06,1.23c0-.41,0-.81.06-1.22a174,174,0,0,1,27-83.29A169.72,169.72,0,0,0,11,124.47h0a170.11,170.11,0,0,0-5.22,21.87,168.22,168.22,0,0,0-2.26,21.88c0,.33,0,.67,0,1,0,.75,0,1.5-.1,2.24s-.07,1.69-.09,2.55v0h0v.13h0l0,.51h0a171.3,171.3,0,0,0,17.61,82.09A174.71,174.71,0,0,1,.29,171.08M93,332.53q2.28,1.28,4.61,2.47-2.32-1.2-4.61-2.47m197.64-23.79-.21.19c.77-.62,1.53-1.26,2.29-1.89-.79.67-1.59,1.34-2.4,2,0,0,0,0,0,0h0l0,0h0a175.8,175.8,0,0,1-43.65,25.95l-.09,0-.08,0a151.63,151.63,0,0,1-53.46,9.66,159.54,159.54,0,0,1-89.72-27.93c-4.13-2.79-8.08-5.75-11.86-8.83a148.19,148.19,0,0,1-23-18.59q-2.62-2.56-5.08-5.24c-.82-.9-1.63-1.81-2.42-2.72-.51-.56-1-1.14-1.47-1.71s-.93-1.09-1.39-1.64c-.59-.73-1.19-1.45-1.78-2.19l-.1-.14c-.72-.91-1.43-1.82-2.12-2.76s-1.28-1.69-1.88-2.55c-.19-.24-.36-.48-.51-.71-.64-.87-1.23-1.73-1.83-2.6a165.31,165.31,0,0,0,51.44,55.92,162.24,162.24,0,0,0,52.35,23.4h.05l2.09.5c2.09.49,4.19.92,6.29,1.32q-4.08-.52-8.16-1.27c-2.72-.49-5.43-1.06-8.14-1.69q-2.72-.63-5.41-1.36c-4.28-1-8.57-2.11-12.83-3.42-1.3-.4-2.59-.81-3.86-1.23h0a175.09,175.09,0,0,1-97.48-79.79,171.74,171.74,0,0,1-22.6-88.28h0A170.56,170.56,0,0,1,10.79,131C29.87,69.2,81.19,25.9,141.1,13.37h0c1.12-.24,3.41-.69,3.42-.69a176,176,0,0,1,19.14-2.52h0c1.91-.15,3.82-.26,5.74-.35h.17l-.16,0c.37,0,7.63,0,13,.48,55.64,5,93.73,25.12,121.12,66.94,2.87,4.38,17.91,26.38,26.52,53.62,5.56,17.59,7.38,42.44,8.35,53.34a169.26,169.26,0,0,1-4.5,57.22c-.39,1.53-.81,3.06-1.27,4.59.45-1.53.87-3.06,1.27-4.59a156.13,156.13,0,0,1-43.26,67.33M338,225.85c-.07.34-.13.7-.2,1.05-.13.65-.26,1.3-.4,2,.21-1,.4-2,.6-3m-.71,3.45a.43.43,0,0,1,0,.11c-.08.35-.16.7-.25,1.05l.27-1.16M333.3,244c-.06.18-.1.35-.16.52-.14.43-.27.86-.41,1.29-.06.17-.11.35-.17.52l-.09.31c-.05.12-.09.24-.13.37l.22-.68c.05-.18.11-.35.16-.52.2-.62.4-1.23.58-1.81m-1.62,5.11a.06.06,0,0,0,0,0v0h0m0,.09a.09.09,0,0,1,0,.05c-.41,1.29-.84,2.57-1.3,3.84.46-1.27.88-2.55,1.29-3.84a.08.08,0,0,0,0-.05m-8.33,24.09v0q-3.37,4.9-7.07,9.53c2.32-3.71,4.51-7.55,6.53-11.53a155.41,155.41,0,0,0,13.88-39,.06.06,0,0,1,0,0c.46-2.14.91-4.26,1.35-6.41a158.55,158.55,0,0,0,3.44-34.25,156,156,0,0,1-4.51,51l.39-1.22c.13-.41.25-.81.37-1.22l-.08.28c-.09.31-.19.63-.29.94s-.25.81-.38,1.21c0,.17-.09.33-.14.5.05-.17.09-.33.13-.49a159.39,159.39,0,0,1-9.89,23.82q-1.79,3.49-3.74,6.86M349,228.48c-3.51,15.92-11.57,28.78-19.7,41.52a170.24,170.24,0,0,0,23.59-80.22c0-.54.06-1.08.07-1.63.07-1.52.13-3.05.17-4.58a1.1,1.1,0,0,0,0-.26,171.11,171.11,0,0,0-17.41-81.67c-.09-.17-.18-.34-.28-.51.1.17.2.34.29.51A175,175,0,0,1,356.15,185c0,.94-.21,6.18-.64,9.26l-2.17,15.61c-.2,1.41-4.29,18.53-4.32,18.61" transform="translate(0 0)"/></g></g></g></g><path class="cls-2" d="M115.58,210.71q4.82-4.94,4.81-13V168.16q0-8.24-4.81-13.17t-12.79-4.94q-7.86,0-12.66,4.94t-4.82,13.17v29.51q0,8.1,4.82,13t12.66,4.94q8,0,12.79-4.94M86,224.45A27.22,27.22,0,0,1,74.61,213.5a32.75,32.75,0,0,1-4-16.34V168.29a31.75,31.75,0,0,1,4-16.15A27.93,27.93,0,0,1,86,141.25a35.21,35.21,0,0,1,16.78-3.86,35.54,35.54,0,0,1,16.91,3.86A27.9,27.9,0,0,1,131,152.14a31.75,31.75,0,0,1,4.05,16.15v28.87A32.36,32.36,0,0,1,131,213.5a27.73,27.73,0,0,1-11.33,10.95,35.54,35.54,0,0,1-16.91,3.86A35.56,35.56,0,0,1,86,224.45" transform="translate(0 0)"/><path class="cls-2" d="M203.41,138.84a1.46,1.46,0,0,1,1.07-.44h11.66a1.5,1.5,0,0,1,1.07.44,1.46,1.46,0,0,1,.44,1.08v85.61a1.46,1.46,0,0,1-.44,1.08,1.5,1.5,0,0,1-1.07.44H204.86a1.82,1.82,0,0,1-1.77-1l-36.47-59.78c-.17-.25-.34-.36-.51-.32s-.25.24-.25.57l.25,59a1.52,1.52,0,0,1-1.52,1.52H152.94a1.5,1.5,0,0,1-1.52-1.52V139.92a1.5,1.5,0,0,1,1.52-1.52h11.27a1.82,1.82,0,0,1,1.77,1l36.35,59.78c.17.25.34.36.51.31s.25-.23.25-.57l-.13-59a1.47,1.47,0,0,1,.45-1.08" transform="translate(0 0)"/><path class="cls-2" d="M294.59,150.62a1.45,1.45,0,0,1-1.08.44H250.33a.56.56,0,0,0-.64.64v23.68a.56.56,0,0,0,.64.63h29a1.5,1.5,0,0,1,1.52,1.52v9.63a1.52,1.52,0,0,1-1.52,1.52h-29a.56.56,0,0,0-.64.63v24.44a.56.56,0,0,0,.64.63h43.18a1.52,1.52,0,0,1,1.52,1.53v9.62a1.5,1.5,0,0,1-.44,1.08,1.49,1.49,0,0,1-1.08.44h-57a1.5,1.5,0,0,1-1.51-1.52V139.92a1.5,1.5,0,0,1,1.51-1.52h57a1.49,1.49,0,0,1,1.08.44,1.5,1.5,0,0,1,.44,1.08v9.62a1.47,1.47,0,0,1-.44,1.08" transform="translate(0 0)"/></svg>